<?xml version="1.0" encoding="UTF-8" standalone="no"?>
<svg width="180px" height="23px" viewBox="0 0 180 23" version="1.1" xmlns="http://www.w3.org/2000/svg" xmlns:xlink="http://www.w3.org/1999/xlink" xmlns:sketch="http://www.bohemiancoding.com/sketch/ns">
    <!-- Generator: Sketch 3.3.3 (12072) - http://www.bohemiancoding.com/sketch -->
    <title>logo_light</title>
    <desc>Created with Sketch.</desc>
    <defs></defs>
    <g id="Page-1" stroke="none" stroke-width="1" fill="none" fill-rule="evenodd" sketch:type="MSPage">
        <path d="M15.376,11.088 C15.664,10.96 17.712,9.936 17.712,6.704 C17.712,3.696 15.472,0.912 10.256,0.912 L1.296,0.912 C0.56,0.912 0.368,1.264 0.368,1.84 L0.368,21.072 C0.368,21.648 0.56,22 1.296,22 L10.704,22 C15.152,22 18.32,19.92 18.32,15.856 C18.32,12.4 15.632,11.184 15.376,11.088 L15.376,11.088 Z M10.768,17.456 L5.392,17.456 L5.392,5.424 L10.256,5.424 C11.92,5.424 12.912,5.776 12.912,7.216 C12.912,8.464 12.112,9.136 10.256,9.136 L9.84,9.136 C9.104,9.136 8.912,9.488 8.912,10.064 L8.912,12.496 C8.912,13.072 9.104,13.424 9.84,13.424 L10.576,13.424 C12.112,13.424 13.232,13.872 13.232,15.376 C13.232,16.816 12.336,17.456 10.768,17.456 L10.768,17.456 Z M37.616,17.52 L27.408,17.52 L27.408,13.296 L35.984,13.296 C36.72,13.296 36.912,12.944 36.912,12.368 L36.912,9.872 C36.912,9.296 36.72,8.944 35.984,8.944 L27.408,8.944 L27.408,5.456 L37.072,5.456 C37.808,5.456 38,5.104 38,4.528 L38,1.872 C38,1.296 37.808,0.944 37.072,0.944 L23.28,0.944 C22.544,0.944 22.352,1.296 22.352,1.872 L22.352,21.072 C22.352,21.648 22.544,22 23.28,22 L37.616,22 C38.352,22 38.544,21.648 38.544,21.072 L38.544,18.448 C38.544,17.872 38.352,17.52 37.616,17.52 L37.616,17.52 Z M58.576,0.944 L55.504,0.944 C54.928,0.944 54.576,1.136 54.576,1.872 L54.576,12.976 L47.792,2.032 C47.376,1.392 47.152,0.944 46.352,0.944 L43.344,0.944 C42.608,0.944 42.416,1.296 42.416,1.872 L42.416,21.072 C42.416,21.808 42.768,22 43.344,22 L46.512,22 C47.088,22 47.44,21.808 47.44,21.072 L47.44,9.936 L54.224,20.912 C54.64,21.552 54.864,22 55.664,22 L58.576,22 C59.312,22 59.504,21.648 59.504,21.072 L59.504,1.872 C59.504,1.136 59.152,0.944 58.576,0.944 L58.576,0.944 Z M80.784,7.696 C80.784,2.64 75.984,0.464 72.176,0.464 C68.368,0.464 63.632,2.64 63.632,7.696 L63.632,15.248 C63.632,20.304 68.368,22.48 72.176,22.48 C75.984,22.48 80.784,20.304 80.784,15.248 L80.784,7.696 Z M75.76,14.8 C75.76,16.848 74.288,18.032 72.176,18.032 C70.096,18.032 68.624,16.848 68.624,14.8 L68.624,8.144 C68.624,6.096 70.096,4.912 72.176,4.912 C74.288,4.912 75.76,6.096 75.76,8.144 L75.76,14.8 Z M93.008,0.944 L85.808,0.944 C85.072,0.944 84.88,1.296 84.88,1.872 L84.88,21.072 C84.88,21.808 85.232,22 85.808,22 L88.976,22 C89.552,22 89.904,21.808 89.904,21.072 L89.904,15.76 L92.976,15.76 C98.448,15.76 101.392,12.816 101.392,8.368 C101.392,3.952 98.512,0.944 93.008,0.944 L93.008,0.944 Z M92.976,11.44 L89.904,11.44 L89.904,5.456 L92.976,5.456 C95.472,5.456 96.56,6.8 96.56,8.464 C96.56,10.064 95.472,11.44 92.976,11.44 L92.976,11.44 Z M119.216,17.52 L110,17.52 L110,1.872 C110,1.136 109.648,0.944 109.072,0.944 L105.904,0.944 C105.328,0.944 104.976,1.136 104.976,1.872 L104.976,21.072 C104.976,21.648 105.168,22 105.904,22 L119.216,22 C119.952,22 120.144,21.648 120.144,21.072 L120.144,18.448 C120.144,17.872 119.952,17.52 119.216,17.52 L119.216,17.52 Z M141.712,21.104 L134.64,1.936 C134.352,1.264 134.032,0.944 133.328,0.944 L130.256,0.944 C129.552,0.944 129.2,1.264 128.944,1.936 L121.84,21.104 C121.68,21.488 121.68,22 122.384,22 L125.744,22 C126.448,22 126.704,21.808 126.96,21.04 L127.856,18.512 L135.696,18.512 L136.592,21.04 C136.848,21.808 137.104,22 137.808,22 L141.168,22 C141.872,22 141.872,21.488 141.712,21.104 L141.712,21.104 Z M129.392,14.032 L131.792,6.96 L134.192,14.032 L129.392,14.032 Z M154.48,9.776 C153.2,9.264 148.496,8.56 148.496,6.608 C148.496,5.168 150.256,4.752 151.312,4.752 C152.272,4.752 153.424,5.04 154.032,5.616 C154.416,6 154.576,6.256 154.704,6.576 C154.864,6.992 154.96,7.44 155.568,7.44 L158.704,7.44 C159.44,7.44 159.632,7.312 159.632,6.544 C159.632,2.32 155.184,0.464 151.12,0.464 C147.12,0.624 143.344,2.672 143.344,6.832 C143.344,10.896 146.32,12.176 149.552,13.2 C152.272,14.064 155.12,14.096 155.12,15.888 C155.12,17.68 153.712,18.064 151.984,18.064 C150.8,18.064 149.488,17.776 148.848,17.008 C148.432,16.528 148.272,16.112 148.24,15.696 C148.176,14.896 147.824,14.8 147.088,14.8 L143.984,14.8 C143.248,14.8 143.056,14.96 143.056,15.696 C143.056,20.176 147.664,22.48 151.664,22.48 C156.592,22.48 160.176,20.304 160.176,15.76 C160.176,11.408 156.784,10.48 154.48,9.776 L154.48,9.776 Z M178.16,0.944 L163.312,0.944 C162.576,0.944 162.384,1.296 162.384,1.872 L162.384,4.528 C162.384,5.104 162.576,5.456 163.312,5.456 L168.24,5.456 L168.24,21.072 C168.24,21.808 168.592,22 169.168,22 L172.336,22 C172.912,22 173.264,21.808 173.264,21.072 L173.264,5.456 L178.16,5.456 C178.896,5.456 179.088,5.104 179.088,4.528 L179.088,1.872 C179.088,1.296 178.896,0.944 178.16,0.944 L178.16,0.944 Z" id="logo_light" fill="#FFFFFF" sketch:type="MSShapeGroup"></path>
    </g>
</svg>