<?xml version="1.0" encoding="UTF-8" standalone="no"?>
<svg width="392px" height="106px" viewBox="0 0 392 106" version="1.1" xmlns="http://www.w3.org/2000/svg" xmlns:xlink="http://www.w3.org/1999/xlink" xmlns:sketch="http://www.bohemiancoding.com/sketch/ns">
    <!-- Generator: Sketch 3.4.3 (16044) - http://www.bohemiancoding.com/sketch -->
    <title>logo_dark</title>
    <desc>Created with Sketch.</desc>
    <defs></defs>
    <g id="Page-1" stroke="none" stroke-width="1" fill="none" fill-rule="evenodd" sketch:type="MSPage">
        <g id="logo_dark" sketch:type="MSLayerGroup">
            <g id="flights" sketch:type="MSShapeGroup">
                <circle id="bg-circle" fill="#F6F6F6" cx="53" cy="53" r="53"></circle>
                <circle id="Oval-7-Copy-4" stroke="#168F63" stroke-width="3" fill="#168F63" cx="53" cy="53" r="40"></circle>
                <path d="M83.14285,36.5309 C82.26735,36.4924 81.36485,36.4609 80.48935,36.4264 C79.57835,36.3904 78.65435,36.3554 77.74385,36.3194 C76.87685,36.2854 76.00335,36.2504 75.13635,36.2169 C74.16385,36.1789 73.18835,36.1419 72.21585,36.1039 C71.40185,36.0719 70.58585,36.0379 69.77185,36.0054 C68.84335,35.9689 67.91435,35.9334 66.98585,35.8969 C66.11885,35.8629 65.25185,35.8284 64.38485,35.7944 C63.47385,35.7584 62.56235,35.7229 61.65185,35.6869 C60.78485,35.6524 59.91785,35.6179 59.05085,35.5834 C58.13985,35.5474 57.22935,35.5124 56.31835,35.4764 C55.43435,35.4419 54.54985,35.4064 53.66535,35.3719 C52.75485,35.3359 51.84385,35.3009 50.93335,35.2644 C50.13585,35.2319 49.33885,35.1974 48.54185,35.1644 C47.22635,35.1094 45.91135,35.0529 44.59535,35.0004 C43.56885,34.9594 42.54235,34.9279 41.51585,34.8849 C39.92935,34.8189 38.34285,34.7459 36.75585,34.6759 C36.30935,34.6564 35.86235,34.6269 35.41535,34.6219 C34.69785,34.6134 33.96885,34.5429 33.26435,34.6409 C31.93985,34.8244 30.99635,35.5669 30.53535,36.8499 C30.18835,37.8144 30.36035,38.7284 30.91485,39.5614 C31.19535,39.9824 31.53135,40.3739 31.88535,40.7364 C34.04835,42.9524 35.70335,45.4744 36.55585,48.4754 C36.77935,49.2629 36.92285,50.0734 37.10285,50.8734 C36.86585,50.7954 36.74635,50.6459 36.61135,50.5124 C35.17035,49.0874 33.80735,47.5764 32.16385,46.3714 C30.95485,45.4859 29.64185,44.9004 28.08585,45.1169 C27.48785,45.1999 27.05135,45.5269 26.68385,45.9894 C27.10885,45.8699 27.52685,45.8644 27.92835,45.9474 C28.16235,45.9959 28.39085,46.0739 28.61235,46.1769 C29.24135,46.4709 29.84835,46.8209 30.43485,47.1949 C30.97435,47.5399 31.39685,47.9204 31.89085,48.3049 C31.45335,48.1509 31.08985,48.0164 30.72185,47.8964 C30.58985,47.8534 30.47735,47.8584 30.38985,47.9264 C30.18535,48.6444 29.52585,49.1709 28.74235,49.1709 C26.97835,49.1709 26.75535,46.8014 26.62785,46.3609 C26.53035,46.0249 26.51985,45.9659 26.15585,45.9119 C26.08685,45.9019 26.01535,45.9084 25.94635,45.8984 C24.96985,45.7534 24.08685,46.4484 23.99985,47.4439 C25.26435,47.5354 25.93985,48.1759 26.17585,49.2509 C26.43285,50.4229 26.60935,51.6124 26.82935,52.7929 C27.07235,54.0944 27.27585,55.4059 27.58385,56.6924 C28.07235,58.7344 28.94385,60.6034 30.30935,62.2244 C31.41235,63.5339 32.71985,64.5944 34.17085,65.4889 C35.23985,66.1474 36.36535,66.6894 37.51985,67.1804 C39.07585,67.8419 40.62135,68.5289 42.17235,69.2034 C44.39985,70.1719 46.62785,71.1389 48.85585,72.1059 C50.56985,72.8499 52.28435,73.5919 53.99735,74.3379 C55.70335,75.0814 57.40735,75.8289 59.11185,76.5749 C60.29035,77.0909 61.46685,77.6104 62.64585,78.1244 C64.07735,78.7489 65.51235,79.3659 66.94335,79.9924 C68.15935,80.5249 69.36985,81.0714 70.58685,81.6029 C72.02385,82.2304 73.46885,82.8404 74.90335,83.4739 C75.99085,83.9539 77.7384459,84.984048 78.8184459,85.482048 C78.9594459,85.547548 84.7048213,80.7818985 87.4882762,76.0762787 C72.3247762,70.9332787 56.72785,65.3119 41.55735,60.1664 C41.73635,59.9469 41.90585,59.7689 42.03985,59.5674 C42.26035,59.2364 42.58585,59.2294 42.91785,59.2589 C43.49985,59.3094 44.08085,59.4364 44.66135,59.4304 C45.93235,59.4174 47.08835,59.0229 48.08485,58.2104 C48.12585,58.1769 48.15085,58.1234 48.18835,58.0724 C46.72785,57.7659 45.25635,57.6249 43.85035,57.0909 C44.06935,56.7209 44.27185,56.3779 44.47135,56.0409 C44.73785,56.0754 44.98835,56.1044 45.23785,56.1399 C46.03835,56.2539 46.83685,56.3849 47.63935,56.4804 C48.29935,56.5589 48.97585,56.6804 49.61935,56.4334 C50.20285,56.2099 50.76735,55.9324 51.32635,55.6514 C51.59935,55.5144 51.84135,55.3154 52.11635,55.1319 C51.44585,55.0559 50.81235,55.0319 50.20035,54.9049 C48.84535,54.6229 47.50135,54.2894 46.15285,53.9769 C45.58635,53.8099 45.56985,53.7764 45.74985,53.2984 C46.00285,52.6284 46.00085,52.6374 46.68885,52.7914 C47.93535,53.0699 49.17785,53.3714 50.43385,53.6004 C52.36885,53.9534 54.03285,53.2974 55.55035,52.1129 C55.36685,52.0644 55.20585,52.0139 55.04135,51.9794 C53.01785,51.5544 50.99435,51.1319 48.97085,50.7089 C48.32635,50.5739 47.67785,50.4554 47.03835,50.3004 C46.64585,50.2054 46.64935,50.1804 46.71235,49.7979 C46.76135,49.5034 46.81885,49.2099 46.87185,48.9169 C47.26135,48.9914 47.61085,49.0599 47.96035,49.1249 C49.12385,49.3424 50.28685,49.5599 51.45085,49.7754 C52.50285,49.9699 53.54935,50.2079 54.60935,50.3439 C56.55035,50.5929 58.27285,50.0939 59.75835,48.6189 C58.36385,48.3584 57.03085,48.1014 55.69535,47.8629 C54.79635,47.7024 53.89235,47.5694 52.99085,47.4214 C52.07235,47.2704 51.15435,47.1169 50.23585,46.9644 C49.15535,46.7849 48.07535,46.6059 46.99635,46.4264 C46.96185,45.9679 46.92835,45.5274 46.89385,45.0659 C46.97585,45.0714 47.05285,45.0719 47.12835,45.0834 C47.65285,45.1639 48.17635,45.2484 48.70135,45.3284 C49.54535,45.4569 50.39035,45.5814 51.23485,45.7104 C52.22835,45.8624 53.22035,46.0224 54.21435,46.1694 C55.11085,46.3024 56.01035,46.4184 56.90735,46.5504 C57.80185,46.6819 58.69235,46.8459 59.58935,46.9569 C60.68035,47.0929 61.77685,47.1914 62.87135,47.3009 C64.12785,47.4269 65.33935,47.3134 66.44985,46.6369 C67.05135,46.2704 67.60685,45.8504 68.12685,45.3444 C67.32585,45.1729 66.66735,45.0629 66.00685,44.9659 C65.45585,44.8854 64.90335,44.8184 64.35085,44.7494 C63.72835,44.6714 63.10535,44.5979 62.48235,44.5209 C61.82535,44.4399 61.16835,44.3549 60.51085,44.2749 C59.87035,44.1974 59.22885,44.1259 58.58835,44.0479 C57.93085,43.9679 57.27435,43.8804 56.61685,43.8004 C55.97635,43.7229 55.33485,43.6549 54.69435,43.5764 C53.89785,43.4784 53.10185,43.3734 52.30585,43.2729 C51.50935,43.1719 50.71335,43.0709 49.91685,42.9739 C49.26635,42.8944 48.61435,42.8254 47.96435,42.7434 C47.46435,42.6804 46.96585,42.6074 46.46785,42.5314 C46.41135,42.5224 46.33235,42.4749 46.31435,42.4264 C46.16635,42.0304 46.03035,41.6299 45.88085,41.2039 C46.54985,41.2639 47.19385,41.3169 47.83635,41.3809 C48.64485,41.4614 49.45235,41.5529 50.26085,41.6364 C50.82585,41.6949 51.39185,41.7454 51.95735,41.8044 C52.57335,41.8689 53.18885,41.9399 53.80485,42.0059 C54.35185,42.0639 54.89885,42.1169 55.44535,42.1759 C56.04385,42.2399 56.64185,42.3099 57.24035,42.3749 C57.78735,42.4344 58.33485,42.4874 58.88185,42.5474 C59.61885,42.6284 60.35485,42.7169 61.09185,42.7959 C61.64735,42.8559 62.20385,42.9019 62.75935,42.9629 C63.49585,43.0434 64.23085,43.1369 64.96735,43.2174 C65.53135,43.2789 66.09785,43.3229 66.66235,43.3849 C67.56435,43.4834 68.46535,43.5949 69.36735,43.6914 C70.11385,43.7709 70.86485,43.8124 71.60785,43.9139 C72.74985,44.0694 73.87935,44.0689 74.99135,43.7419 C76.31835,43.3514 77.37785,42.5629 78.29935,41.4844 C78.04185,41.4569 77.82885,41.4344 77.61585,41.4109 C77.01735,41.3459 76.41935,41.2789 75.82035,41.2164 C75.23885,41.1559 74.65685,41.0974 74.07435,41.0434 C73.34335,40.9749 72.61185,40.9084 71.87985,40.8479 C71.36635,40.8049 70.85085,40.7779 70.33735,40.7369 C69.51885,40.6709 68.70085,40.5979 67.88235,40.5304 C67.39435,40.4904 66.90585,40.4584 66.41785,40.4174 C65.62535,40.3519 64.83335,40.2794 64.04035,40.2144 C63.53485,40.1729 63.02785,40.1439 62.52235,40.1029 C61.71185,40.0374 60.90185,39.9634 60.09085,39.8979 C59.58485,39.8569 59.07785,39.8279 58.57185,39.7874 C57.74435,39.7209 56.91685,39.6484 56.08935,39.5814 C55.60135,39.5419 55.11235,39.5129 54.62435,39.4709 C53.85835,39.4059 53.09335,39.3289 52.32685,39.2664 C51.77785,39.2214 51.22685,39.1994 50.67785,39.1544 C49.69435,39.0739 48.71185,38.9794 47.72835,38.8979 C46.79435,38.8214 45.85935,38.7594 44.92585,38.6784 C44.74185,38.6624 44.49685,38.6474 44.39435,38.5314 C44.06135,38.1554 43.78135,37.7329 43.48035,37.3264 C44.12885,37.3569 44.77485,37.3859 45.42085,37.4184 C46.12235,37.4534 46.82335,37.4879 47.52435,37.5299 C48.60785,37.5949 49.69085,37.6669 50.77435,37.7339 C51.38585,37.7719 51.99785,37.8019 52.60885,37.8434 C53.56835,37.9089 54.52735,37.9849 55.48685,38.0494 C56.12435,38.0924 56.76285,38.1184 57.40035,38.1594 C58.43035,38.2254 59.45985,38.2984 60.48985,38.3669 C61.06585,38.4049 61.64285,38.4374 62.21885,38.4764 C63.20485,38.5439 64.19035,38.6169 65.17635,38.6829 C65.78735,38.7234 66.39935,38.7524 67.01035,38.7929 C68.01385,38.8594 69.01685,38.9324 70.02035,38.9994 C70.61385,39.0389 71.20785,39.0684 71.80135,39.1089 C72.76985,39.1754 73.73785,39.2504 74.70635,39.3154 C75.33485,39.3574 75.96435,39.3814 76.59285,39.4254 C77.77035,39.5074 78.94635,39.6109 80.12435,39.6814 C81.03435,39.7354 81.94685,39.7794 82.85885,39.7824 C84.98585,39.7889 86.82685,38.9569 88.14585,37.2784 C88.23585,37.1634 88.03585,37.0549 88.53585,36.9434 C87.53585,36.8209 87.11235,36.7279 86.45185,36.6859 C85.36785,36.6169 84.22835,36.5779 83.14285,36.5309 Z M28.9999937,47.5038044 C29.0013222,47.2107182 28.7907631,47.0000004 28.4965116,47.0000004 C28.1913005,46.9996696 27.9990075,47.1945091 28.0000039,47.5021504 C28.0010002,47.7833279 28.2158768,48 28.4938547,48 C28.7665189,48 28.9986653,47.7720808 28.9999937,47.5038044" id="Fill-5" fill="#FFFFFF"></path>
            </g>
            <g id="text-copy" transform="translate(119.000000, 28.000000)" sketch:type="MSShapeGroup">
                <path d="M12.5657143,5.2 L1.25142857,5.2 C0.52,5.2 0.291428571,5.45142857 0.291428571,6.16 L0.291428571,8.21714286 C0.291428571,8.94857143 0.52,9.2 1.25142857,9.2 L4.65714286,9.2 L4.65714286,20.4685714 C4.65714286,21.1771429 4.88571429,21.4285714 5.61714286,21.4285714 L8.2,21.4285714 C8.93142857,21.4285714 9.18285714,21.1771429 9.18285714,20.4685714 L9.18285714,9.2 L12.5657143,9.2 C13.2971429,9.2 13.5485714,8.94857143 13.5485714,8.21714286 L13.5485714,6.16 C13.5485714,5.45142857 13.2971429,5.2 12.5657143,5.2 L12.5657143,5.2 Z M19.3314286,0.537142857 L19.1714286,0.537142857 C17.8914286,0.537142857 17.5257143,0.925714286 17.5257143,2.16 L17.5257143,2.45714286 C17.5257143,3.66857143 17.8914286,4.08 19.1714286,4.08 L19.3314286,4.08 C20.6114286,4.08 21.0228571,3.66857143 21.0228571,2.45714286 L21.0228571,2.16 C21.0228571,0.925714286 20.6114286,0.537142857 19.3314286,0.537142857 L19.3314286,0.537142857 Z M24.2457143,0.537142857 L24.0857143,0.537142857 C22.8285714,0.537142857 22.4171429,0.925714286 22.4171429,2.16 L22.4171429,2.45714286 C22.4171429,3.66857143 22.8285714,4.08 24.0857143,4.08 L24.2457143,4.08 C25.5257143,4.08 25.9142857,3.66857143 25.9142857,2.45714286 L25.9142857,2.16 C25.9142857,0.925714286 25.5257143,0.537142857 24.2457143,0.537142857 L24.2457143,0.537142857 Z M19.3542857,15.6685714 L19.3542857,6.16 C19.3542857,5.45142857 19.1028571,5.2 18.3714286,5.2 L15.7885714,5.2 C15.0571429,5.2 14.8285714,5.45142857 14.8285714,6.16 L14.8285714,15.4628571 C14.8285714,19.3028571 17.2057143,21.7714286 21.7085714,21.7714286 C26.2342857,21.7714286 28.6114286,19.3028571 28.6114286,15.4628571 L28.6114286,6.16 C28.6114286,5.45142857 28.36,5.2 27.6285714,5.2 L25.0457143,5.2 C24.3142857,5.2 24.0857143,5.45142857 24.0857143,6.16 L24.0857143,15.6685714 C24.0857143,17.0171429 23.2857143,17.7714286 21.7085714,17.7714286 C20.1314286,17.7714286 19.3542857,17.0171429 19.3542857,15.6685714 L19.3542857,15.6685714 Z M38.2571429,5.2 L31.7428571,5.2 C31.0114286,5.2 30.76,5.45142857 30.76,6.16 L30.76,20.4685714 C30.76,21.1771429 31.0114286,21.4285714 31.7428571,21.4285714 L34.3257143,21.4285714 C35.0571429,21.4285714 35.2857143,21.1771429 35.2857143,20.4685714 L35.2857143,16.0342857 L35.8114286,16.0342857 C36.7485714,16.0342857 37.1371429,16.4228571 37.5257143,17.2 L38.9885714,20.3314286 C39.3542857,21.1314286 39.88,21.4285714 41.0914286,21.4285714 L43.56,21.4285714 C44.3142857,21.4285714 44.4742857,20.9257143 44.1542857,20.3085714 L42.0971429,16.4 C41.9142857,16.0342857 41.7085714,15.7142857 41.48,15.4171429 C43.0342857,14.5485714 43.9485714,12.9485714 43.9485714,10.7085714 C43.9485714,7.16571429 41.7085714,5.2 38.2571429,5.2 L38.2571429,5.2 Z M39.2628571,10.6857143 C39.2628571,11.6228571 38.7142857,12.2171429 37.7542857,12.2171429 L35.2857143,12.2171429 L35.2857143,9.2 L37.7542857,9.2 C38.7371429,9.2 39.2628571,9.77142857 39.2628571,10.6857143 L39.2628571,10.6857143 Z M59.4457143,20.3085714 L56.4285714,14.5942857 C56.04,13.8171429 55.6057143,13.2457143 55.0342857,12.8342857 L59.1942857,6.20571429 C59.56,5.61142857 59.3314286,5.2 58.6457143,5.2 L56.0171429,5.2 C54.8285714,5.2 54.6228571,5.33714286 54.1885714,6.04571429 L50.8971429,11.2342857 L50.7142857,11.2342857 L50.3942857,11.2342857 L50.3942857,6.16 C50.3942857,5.45142857 50.1657143,5.2 49.4342857,5.2 L46.8514286,5.2 C46.12,5.2 45.8685714,5.45142857 45.8685714,6.16 L45.8685714,20.4685714 C45.8685714,21.1771429 46.12,21.4285714 46.8514286,21.4285714 L49.4342857,21.4285714 C50.1657143,21.4285714 50.3942857,21.1771429 50.3942857,20.4685714 L50.3942857,15.2342857 L50.8057143,15.2342857 C51.6742857,15.2342857 51.9942857,15.6457143 52.36,16.3771429 L54.3485714,20.4685714 C54.7371429,21.2685714 55.1714286,21.4285714 56.3828571,21.4285714 L58.8514286,21.4285714 C59.6057143,21.4285714 59.7657143,20.9257143 59.4457143,20.3085714 L59.4457143,20.3085714 Z M76.4285714,5.17714286 L74.1428571,5.17714286 C73.3885714,5.17714286 73.1828571,5.29142857 72.8628571,5.90857143 L69.0914286,13.2914286 L65.32,5.88571429 C65,5.31428571 64.7714286,5.17714286 63.9714286,5.17714286 L61.8228571,5.17714286 C61.0914286,5.17714286 60.84,5.40571429 60.84,6.13714286 L60.84,20.4914286 C60.84,21.2 61.0914286,21.4285714 61.8228571,21.4285714 L64.1542857,21.4285714 C64.8857143,21.4285714 65.1371429,21.2 65.1371429,20.4914286 L65.1371429,17.2457143 C65.1371429,15.6685714 65.0228571,14.5257143 64.2,11.2342857 L64.4285714,11.2342857 C64.6571429,12.0342857 65.3657143,14.1371429 65.8457143,15.0057143 L67.1942857,17.5885714 C67.4457143,18.0914286 67.6742857,18.2514286 68.2914286,18.2514286 L69.8228571,18.2514286 C70.44,18.2514286 70.6685714,18.0457143 70.92,17.5885714 L72.2,15.0057143 C72.68,14.0685714 73.5028571,11.9885714 73.7314286,11.2342857 L73.9828571,11.2342857 C73.1142857,14.2742857 72.9771429,15.7142857 72.9771429,17.2228571 L72.9771429,20.4914286 C72.9771429,21.2 73.2057143,21.4285714 73.9371429,21.4285714 L76.4285714,21.4285714 C77.16,21.4285714 77.4114286,21.2 77.4114286,20.4914286 L77.4114286,6.13714286 C77.4114286,5.40571429 77.16,5.17714286 76.4285714,5.17714286 L76.4285714,5.17714286 Z M90.2571429,5.2 L80.68,5.2 C79.9485714,5.2 79.6971429,5.45142857 79.6971429,6.16 L79.6971429,20.4685714 C79.6971429,21.1771429 79.9485714,21.4285714 80.68,21.4285714 L90.4628571,21.4285714 C91.1714286,21.4285714 91.4228571,21.1771429 91.4228571,20.4685714 L91.4228571,18.3885714 C91.4228571,17.6571429 91.1714286,17.4285714 90.4628571,17.4285714 L84.2228571,17.4285714 L84.2228571,15.2342857 L89.0457143,15.2342857 C89.7771429,15.2342857 90.0285714,14.9828571 90.0285714,14.2514286 L90.0285714,12.1942857 C90.0285714,11.4857143 89.7771429,11.2342857 89.0457143,11.2342857 L84.2228571,11.2342857 L84.2228571,9.2 L90.2571429,9.2 C90.9885714,9.2 91.24,8.94857143 91.24,8.21714286 L91.24,6.16 C91.24,5.45142857 90.9885714,5.2 90.2571429,5.2 L90.2571429,5.2 Z M105.891429,5.2 L103.56,5.2 C102.828571,5.2 102.6,5.45142857 102.6,6.16 L102.6,9.90857143 C102.6,12.24 102.897143,13.3371429 103.628571,15.6914286 L103.445714,15.6914286 C102.714286,13.9542857 102.531429,13.0857143 101.525714,11.5085714 L97.7771429,5.65714286 C97.5714286,5.33714286 97.3428571,5.2 96.8171429,5.2 L94.12,5.2 C93.3885714,5.2 93.1371429,5.45142857 93.1371429,6.16 L93.1371429,20.4685714 C93.1371429,21.1771429 93.3885714,21.4285714 94.12,21.4285714 L96.4285714,21.4285714 C97.16,21.4285714 97.4114286,21.1771429 97.4114286,20.4685714 L97.4114286,16.7428571 C97.4114286,14.2057143 97.1371429,13.04 96.6571429,10.8457143 L96.84,10.8457143 C97.4571429,12.9028571 97.8457143,13.9771429 98.8514286,15.5542857 L102.371429,20.9714286 C102.577143,21.2914286 102.828571,21.4285714 103.308571,21.4285714 L105.891429,21.4285714 C106.6,21.4285714 106.851429,21.1771429 106.851429,20.4685714 L106.851429,6.16 C106.851429,5.45142857 106.6,5.2 105.891429,5.2 L105.891429,5.2 Z M121.662857,5.17714286 L119.057143,5.17714286 C118.348571,5.17714286 118.097143,5.42857143 118.097143,6.16 L118.097143,11.2114286 L113.662857,11.2114286 L113.662857,6.16 C113.662857,5.42857143 113.434286,5.17714286 112.702857,5.17714286 L110.12,5.17714286 C109.388571,5.17714286 109.137143,5.42857143 109.137143,6.16 L109.137143,20.4685714 C109.137143,21.1771429 109.388571,21.4285714 110.12,21.4285714 L112.702857,21.4285714 C113.434286,21.4285714 113.662857,21.1771429 113.662857,20.4685714 L113.662857,15.2114286 L118.097143,15.2114286 L118.097143,20.4685714 C118.097143,21.1771429 118.348571,21.4285714 119.057143,21.4285714 L121.662857,21.4285714 C122.371429,21.4285714 122.622857,21.1771429 122.622857,20.4685714 L122.622857,6.16 C122.622857,5.42857143 122.371429,5.17714286 121.662857,5.17714286 L121.662857,5.17714286 Z M124.52,11.2571429 L124.52,15.3714286 C124.52,19.3257143 127.034286,21.7714286 131.56,21.7714286 C136.062857,21.7714286 138.577143,19.3257143 138.577143,15.3714286 L138.577143,11.2571429 C138.577143,7.30285714 136.062857,4.85714286 131.56,4.85714286 C127.034286,4.85714286 124.52,7.30285714 124.52,11.2571429 L124.52,11.2571429 Z M134.051429,11.0514286 L134.051429,15.5771429 C134.051429,17.0171429 133.137143,17.7714286 131.56,17.7714286 C129.96,17.7714286 129.045714,17.0171429 129.045714,15.5771429 L129.045714,11.0514286 C129.045714,9.61142857 129.96,8.85714286 131.56,8.85714286 C133.137143,8.85714286 134.051429,9.61142857 134.051429,11.0514286 L134.051429,11.0514286 Z M159.56,5.2 L157.022857,5.2 C156.2,5.2 155.857143,5.33714286 155.72,6.04571429 L154.76,12.0342857 C154.577143,13.2914286 154.44,15.44 154.417143,16.08 L154.234286,16.08 C154.211429,15.3942857 154.074286,13.3371429 153.8,12.0342857 L152.405714,6.04571429 C152.245714,5.33714286 151.834286,5.2 151.125714,5.2 L148.657143,5.2 C147.925714,5.2 147.537143,5.31428571 147.377143,6.04571429 L145.96,12.0342857 C145.685714,13.2685714 145.525714,15.3942857 145.525714,16.08 L145.365714,16.08 C145.365714,15.44 145.251429,13.2228571 145.045714,12.0342857 L144.04,6.04571429 C143.902857,5.33714286 143.56,5.2 142.76,5.2 L139.948571,5.2 C139.24,5.2 139.171429,5.49714286 139.331429,6.13714286 L142.942857,20.6742857 C143.08,21.2914286 143.468571,21.4285714 144.131429,21.4285714 L146.76,21.4285714 C147.4,21.4285714 147.765714,21.2914286 147.948571,20.6285714 L149.16,15.3485714 C149.48,13.8628571 149.617143,12.5371429 149.662857,11.2342857 L149.845714,11.2342857 C149.868571,12.5371429 149.982857,13.9085714 150.28,15.3485714 L151.514286,20.6742857 C151.651429,21.2685714 152.04,21.4285714 152.702857,21.4285714 L155.377143,21.4285714 C156.017143,21.4285714 156.382857,21.2914286 156.542857,20.6285714 L160.177143,6.13714286 C160.337143,5.49714286 160.268571,5.2 159.56,5.2 L159.56,5.2 Z M174.737143,20.4914286 L169.457143,5.95428571 C169.228571,5.36 168.931429,5.2 168.268571,5.2 L165.662857,5.2 C165,5.2 164.702857,5.33714286 164.474286,6 L159.217143,20.4914286 C158.988571,21.1085714 159.125714,21.4285714 159.834286,21.4285714 L162.234286,21.4285714 C163.377143,21.4285714 163.674286,21.1771429 163.902857,20.4685714 L164.428571,18.8228571 L169.365714,18.8228571 L169.891429,20.4685714 C170.074286,21.1771429 170.417143,21.4285714 171.605714,21.4285714 L174.074286,21.4285714 C174.76,21.4285714 174.965714,21.1085714 174.737143,20.4914286 L174.737143,20.4914286 Z M167.491429,12.56 L168.337143,15.2342857 L165.48,15.2342857 L166.325714,12.5371429 C166.782857,11.0057143 166.76,9.36 166.76,9.36 L166.988571,9.36 C166.988571,9.36 167.034286,11.0057143 167.491429,12.56 L167.491429,12.56 Z M180.474286,0.537142857 L177.251429,2.38857143 C176.84,2.61714286 176.84,2.82285714 177.182857,3.25714286 L177.822857,4.01142857 C178.051429,4.33142857 178.325714,4.28571429 178.874286,4.12571429 L183.011429,2.84571429 C183.56,2.64 183.537143,2.38857143 183.148571,1.93142857 L181.982857,0.605714286 C181.525714,0.102857143 181,0.24 180.474286,0.537142857 L180.474286,0.537142857 Z M187.217143,5.2 L184.588571,5.2 C183.468571,5.2 183.148571,5.24571429 182.714286,6.04571429 L180.2,10.7085714 L177.754286,6.04571429 C177.32,5.24571429 177,5.2 175.857143,5.2 L173.114286,5.2 C172.405714,5.2 172.314286,5.63428571 172.634286,6.16 L177.891429,15.1428571 L177.891429,20.4685714 C177.891429,21.1771429 178.142857,21.4285714 178.874286,21.4285714 L181.457143,21.4285714 C182.188571,21.4285714 182.417143,21.1771429 182.417143,20.4685714 L182.417143,15.1428571 L187.697143,6.16 C187.994286,5.63428571 187.902857,5.2 187.217143,5.2 L187.217143,5.2 Z M187.788571,11.2571429 L187.788571,15.3714286 C187.788571,19.3257143 190.302857,21.7714286 194.828571,21.7714286 C199.331429,21.7714286 201.845714,19.3257143 201.845714,15.3714286 L201.845714,11.2571429 C201.845714,7.30285714 199.331429,4.85714286 194.828571,4.85714286 C190.302857,4.85714286 187.788571,7.30285714 187.788571,11.2571429 L187.788571,11.2571429 Z M197.32,11.0514286 L197.32,15.5771429 C197.32,17.0171429 196.405714,17.7714286 194.828571,17.7714286 C193.228571,17.7714286 192.314286,17.0171429 192.314286,15.5771429 L192.314286,11.0514286 C192.314286,9.61142857 193.228571,8.85714286 194.828571,8.85714286 C196.405714,8.85714286 197.32,9.61142857 197.32,11.0514286 L197.32,11.0514286 Z M207.331429,5.2 L204.748571,5.2 C204.017143,5.2 203.765714,5.45142857 203.765714,6.16 L203.765714,20.4685714 C203.765714,21.1771429 204.017143,21.4285714 204.748571,21.4285714 L213.8,21.4285714 C214.508571,21.4285714 214.76,21.1771429 214.76,20.4685714 L214.76,18.3885714 C214.76,17.6571429 214.508571,17.4285714 213.8,17.4285714 L208.291429,17.4285714 L208.291429,6.16 C208.291429,5.45142857 208.062857,5.2 207.331429,5.2 L207.331429,5.2 Z M219.72,5.2 L217.137143,5.2 C216.405714,5.2 216.154286,5.45142857 216.154286,6.16 L216.154286,20.4685714 C216.154286,21.1771429 216.405714,21.4285714 217.137143,21.4285714 L226.188571,21.4285714 C226.897143,21.4285714 227.148571,21.1771429 227.148571,20.4685714 L227.148571,18.3885714 C227.148571,17.6571429 226.897143,17.4285714 226.188571,17.4285714 L220.68,17.4285714 L220.68,6.16 C220.68,5.45142857 220.451429,5.2 219.72,5.2 L219.72,5.2 Z M243.034286,20.4914286 L237.754286,5.95428571 C237.525714,5.36 237.228571,5.2 236.565714,5.2 L233.96,5.2 C233.297143,5.2 233,5.33714286 232.771429,6 L227.514286,20.4914286 C227.285714,21.1085714 227.422857,21.4285714 228.131429,21.4285714 L230.531429,21.4285714 C231.674286,21.4285714 231.971429,21.1771429 232.2,20.4685714 L232.725714,18.8228571 L237.662857,18.8228571 L238.188571,20.4685714 C238.371429,21.1771429 238.714286,21.4285714 239.902857,21.4285714 L242.371429,21.4285714 C243.057143,21.4285714 243.262857,21.1085714 243.034286,20.4914286 L243.034286,20.4914286 Z M235.788571,12.56 L236.634286,15.2342857 L233.777143,15.2342857 L234.622857,12.5371429 C235.08,11.0057143 235.057143,9.36 235.057143,9.36 L235.285714,9.36 C235.285714,9.36 235.331429,11.0057143 235.788571,12.56 L235.788571,12.56 Z M251.765714,5.2 L245.251429,5.2 C244.52,5.2 244.268571,5.45142857 244.268571,6.16 L244.268571,20.4685714 C244.268571,21.1771429 244.52,21.4285714 245.251429,21.4285714 L247.834286,21.4285714 C248.565714,21.4285714 248.794286,21.1771429 248.794286,20.4685714 L248.794286,16.0342857 L249.32,16.0342857 C250.257143,16.0342857 250.645714,16.4228571 251.034286,17.2 L252.497143,20.3314286 C252.862857,21.1314286 253.388571,21.4285714 254.6,21.4285714 L257.068571,21.4285714 C257.822857,21.4285714 257.982857,20.9257143 257.662857,20.3085714 L255.605714,16.4 C255.422857,16.0342857 255.217143,15.7142857 254.988571,15.4171429 C256.542857,14.5485714 257.457143,12.9485714 257.457143,10.7085714 C257.457143,7.16571429 255.217143,5.2 251.765714,5.2 L251.765714,5.2 Z M252.771429,10.6857143 C252.771429,11.6228571 252.222857,12.2171429 251.262857,12.2171429 L248.794286,12.2171429 L248.794286,9.2 L251.262857,9.2 C252.245714,9.2 252.771429,9.77142857 252.771429,10.6857143 L252.771429,10.6857143 Z M272.177143,5.2 L269.548571,5.2 C268.428571,5.2 268.108571,5.24571429 267.674286,6.04571429 L265.16,10.7085714 L262.714286,6.04571429 C262.28,5.24571429 261.96,5.2 260.817143,5.2 L258.074286,5.2 C257.365714,5.2 257.274286,5.63428571 257.594286,6.16 L262.851429,15.1428571 L262.851429,20.4685714 C262.851429,21.1771429 263.102857,21.4285714 263.834286,21.4285714 L266.417143,21.4285714 C267.148571,21.4285714 267.377143,21.1771429 267.377143,20.4685714 L267.377143,15.1428571 L272.657143,6.16 C272.954286,5.63428571 272.862857,5.2 272.177143,5.2 L272.177143,5.2 Z" id="TÜRKMENHOWAÝOLLARY" fill="#45414D"></path>
                <path d="M1.39071429,39.9542857 L1.39071429,44.0028571 C1.39071429,46.9928571 3.285,48.85 6.70214286,48.85 C10.1007143,48.85 11.995,46.9928571 11.995,44.0028571 L11.995,39.9542857 C11.995,36.9642857 10.1007143,35.1071429 6.70214286,35.1071429 C3.285,35.1071429 1.39071429,36.9642857 1.39071429,39.9542857 L1.39071429,39.9542857 Z M9.67357143,39.9357143 L9.67357143,44.0214286 C9.67357143,45.7485714 8.59642857,46.6771429 6.70214286,46.6771429 C4.78928571,46.6771429 3.73071429,45.7485714 3.73071429,44.0214286 L3.73071429,39.9357143 C3.73071429,38.2085714 4.78928571,37.28 6.70214286,37.28 C8.59642857,37.28 9.67357143,38.2085714 9.67357143,39.9357143 L9.67357143,39.9357143 Z M24.215,47.94 L21.8564286,43.4085714 C21.3178571,42.3685714 20.7235714,41.6814286 19.8507143,41.2914286 L23.9921429,35.9985714 C24.2335714,35.6828571 24.1221429,35.3857143 23.695,35.3857143 L22.5064286,35.3857143 C21.7635714,35.3857143 21.5778571,35.46 21.2435714,35.9057143 L17.5107143,40.8271429 L17.2692857,40.8271429 L16.5264286,40.8271429 L16.5264286,36.0171429 C16.5264286,35.5528571 16.3592857,35.3857143 15.895,35.3857143 L14.8364286,35.3857143 C14.3535714,35.3857143 14.1864286,35.5528571 14.1864286,36.0171429 L14.1864286,47.94 C14.1864286,48.4042857 14.3535714,48.5714286 14.8364286,48.5714286 L15.895,48.5714286 C16.3592857,48.5714286 16.5264286,48.4042857 16.5264286,47.94 L16.5264286,42.9442857 L17.4735714,42.9442857 C18.755,42.9442857 19.1821429,43.2414286 19.6835714,44.2442857 L21.5592857,48.0142857 C21.7821429,48.4785714 22.0235714,48.5714286 22.8221429,48.5714286 L23.8992857,48.5714286 C24.3635714,48.5714286 24.4007143,48.2928571 24.215,47.94 L24.215,47.94 Z M28.0778571,44.0585714 L28.0778571,36.0171429 C28.0778571,35.5528571 27.9107143,35.3857143 27.4464286,35.3857143 L26.3692857,35.3857143 C25.905,35.3857143 25.7378571,35.5528571 25.7378571,36.0171429 L25.7378571,44.04 C25.7378571,46.9557143 27.5207143,48.85 30.9378571,48.85 C34.355,48.85 36.1192857,46.9557143 36.1192857,44.04 L36.1192857,36.0171429 C36.1192857,35.5528571 35.9707143,35.3857143 35.4878571,35.3857143 L34.4292857,35.3857143 C33.965,35.3857143 33.7978571,35.5528571 33.7978571,36.0171429 L33.7978571,44.0585714 C33.7978571,45.7114286 32.8507143,46.6771429 30.9378571,46.6771429 C29.025,46.6771429 28.0778571,45.7114286 28.0778571,44.0585714 L28.0778571,44.0585714 Z M53.2607143,35.3857143 L52.1278571,35.3857143 C51.6078571,35.3857143 51.385,35.4785714 51.2921429,35.9428571 L49.8064286,42.8885714 C49.6578571,43.6128571 49.4907143,45.0614286 49.4721429,45.3585714 L49.3607143,45.3585714 C49.3421429,45.0057143 49.175,43.6685714 48.9707143,42.87 L47.1321429,35.9985714 C47.0207143,35.5342857 46.7792857,35.4414286 46.2964286,35.4414286 L45.2935714,35.4414286 C44.8292857,35.4414286 44.5878571,35.5342857 44.4578571,35.9985714 L42.5821429,42.87 C42.3964286,43.5942857 42.2292857,44.9685714 42.2107143,45.3585714 L42.0992857,45.3585714 C42.0621429,45.0242857 41.9321429,43.52 41.8021429,42.87 L40.2792857,35.9428571 C40.1864286,35.4785714 39.9635714,35.3857143 39.4435714,35.3857143 L38.1435714,35.3857143 C37.6792857,35.3857143 37.6235714,35.5714286 37.735,35.9985714 L40.7807143,48.07 C40.8921429,48.4971429 41.1335714,48.5714286 41.5792857,48.5714286 L42.5821429,48.5714286 C43.0092857,48.5714286 43.2507143,48.4971429 43.3621429,48.0514286 L45.3307143,40.6785714 C45.4978571,40.0471429 45.6278571,39.3042857 45.6464286,38.5985714 L45.7764286,38.5985714 C45.795,39.3042857 45.925,40.1028571 46.0735714,40.6971429 L48.0235714,48.07 C48.1164286,48.4785714 48.3578571,48.5714286 48.8035714,48.5714286 L49.825,48.5714286 C50.2521429,48.5714286 50.4935714,48.4971429 50.605,48.0514286 L53.6692857,35.9985714 C53.7807143,35.5714286 53.7064286,35.3857143 53.2607143,35.3857143 L53.2607143,35.3857143 Z M70.8107143,35.3857143 L69.9007143,35.3857143 C69.3992857,35.3857143 69.2692857,35.4785714 69.0464286,35.8871429 L65.1835714,42.7771429 L61.3207143,35.8685714 C61.1164286,35.4785714 60.9492857,35.3857143 60.4292857,35.3857143 L59.6121429,35.3857143 C59.1292857,35.3857143 58.9621429,35.5528571 58.9621429,36.0171429 L58.9621429,47.94 C58.9621429,48.4042857 59.1292857,48.5714286 59.6121429,48.5714286 L60.5035714,48.5714286 C60.9864286,48.5714286 61.135,48.4042857 61.135,47.94 L61.135,42.2942857 C61.135,41.1242857 61.0421429,40.0285714 60.745,38.58 L60.875,38.58 C61.3207143,40.0657143 61.6735714,40.8828571 62.305,41.96 L64.1621429,45.1914286 C64.3664286,45.5628571 64.4964286,45.6371429 64.8864286,45.6371429 L65.4807143,45.6371429 C65.8521429,45.6371429 66.0007143,45.5257143 66.205,45.1914286 L68.025,41.9785714 C68.6192857,40.9014286 69.0835714,39.9728571 69.5478571,38.58 L69.6778571,38.58 C69.3621429,40.01 69.2321429,41.2171429 69.2321429,42.2757143 L69.2321429,47.94 C69.2321429,48.4042857 69.3807143,48.5714286 69.8635714,48.5714286 L70.8107143,48.5714286 C71.2935714,48.5714286 71.4421429,48.4042857 71.4421429,47.94 L71.4421429,36.0171429 C71.4421429,35.5528571 71.2935714,35.3857143 70.8107143,35.3857143 L70.8107143,35.3857143 Z M82.0464286,35.3857143 L74.6735714,35.3857143 C74.1907143,35.3857143 74.0235714,35.5528571 74.0235714,36.0171429 L74.0235714,47.94 C74.0235714,48.4042857 74.1907143,48.5714286 74.6735714,48.5714286 L82.2507143,48.5714286 C82.7335714,48.5714286 82.8821429,48.4042857 82.8821429,47.94 L82.8821429,47.03 C82.8821429,46.5657143 82.7335714,46.3985714 82.2507143,46.3985714 L76.3635714,46.3985714 L76.3635714,42.9814286 L81.1735714,42.9814286 C81.6378571,42.9814286 81.805,42.8142857 81.805,42.35 L81.805,41.44 C81.805,40.9757143 81.6378571,40.8085714 81.1735714,40.8085714 L76.3635714,40.8085714 L76.3635714,37.5585714 L82.0464286,37.5585714 C82.5292857,37.5585714 82.6964286,37.3914286 82.6964286,36.9271429 L82.6964286,36.0171429 C82.6964286,35.5528571 82.5292857,35.3857143 82.0464286,35.3857143 L82.0464286,35.3857143 Z M90.5521429,35.3857143 L85.4264286,35.3857143 C84.9435714,35.3857143 84.7764286,35.5528571 84.7764286,36.0171429 L84.7764286,47.94 C84.7764286,48.4042857 84.9435714,48.5714286 85.4264286,48.5714286 L86.485,48.5714286 C86.9492857,48.5714286 87.1164286,48.4042857 87.1164286,47.94 L87.1164286,43.5571429 L88.4907143,43.5571429 C89.7721429,43.5571429 90.2178571,43.8357143 90.7007143,44.8571429 L92.2607143,48.0142857 C92.4835714,48.4785714 92.725,48.5714286 93.5235714,48.5714286 L94.6007143,48.5714286 C95.065,48.5714286 95.1021429,48.2928571 94.9164286,47.94 L92.8735714,44.0214286 C92.7064286,43.6871429 92.5207143,43.4271429 92.2792857,43.2228571 C93.8207143,42.7028571 94.7307143,41.4028571 94.7307143,39.4714286 C94.7307143,36.9085714 93.1335714,35.3857143 90.5521429,35.3857143 L90.5521429,35.3857143 Z M92.2792857,39.4714286 C92.2792857,40.7157143 91.5735714,41.3842857 90.3292857,41.3842857 L87.1164286,41.3842857 L87.1164286,37.5585714 L90.3292857,37.5585714 C91.5921429,37.5585714 92.2792857,38.2457143 92.2792857,39.4714286 L92.2792857,39.4714286 Z M106.895,47.94 L104.536429,43.4085714 C103.997857,42.3685714 103.403571,41.6814286 102.530714,41.2914286 L106.672143,35.9985714 C106.913571,35.6828571 106.802143,35.3857143 106.375,35.3857143 L105.186429,35.3857143 C104.443571,35.3857143 104.257857,35.46 103.923571,35.9057143 L100.190714,40.8271429 L99.9492857,40.8271429 L99.2064286,40.8271429 L99.2064286,36.0171429 C99.2064286,35.5528571 99.0392857,35.3857143 98.575,35.3857143 L97.5164286,35.3857143 C97.0335714,35.3857143 96.8664286,35.5528571 96.8664286,36.0171429 L96.8664286,47.94 C96.8664286,48.4042857 97.0335714,48.5714286 97.5164286,48.5714286 L98.575,48.5714286 C99.0392857,48.5714286 99.2064286,48.4042857 99.2064286,47.94 L99.2064286,42.9442857 L100.153571,42.9442857 C101.435,42.9442857 101.862143,43.2414286 102.363571,44.2442857 L104.239286,48.0142857 C104.462143,48.4785714 104.703571,48.5714286 105.502143,48.5714286 L106.579286,48.5714286 C107.043571,48.5714286 107.080714,48.2928571 106.895,47.94 L106.895,47.94 Z M116.533571,35.3857143 L109.160714,35.3857143 C108.677857,35.3857143 108.510714,35.5528571 108.510714,36.0171429 L108.510714,47.94 C108.510714,48.4042857 108.677857,48.5714286 109.160714,48.5714286 L116.737857,48.5714286 C117.220714,48.5714286 117.369286,48.4042857 117.369286,47.94 L117.369286,47.03 C117.369286,46.5657143 117.220714,46.3985714 116.737857,46.3985714 L110.850714,46.3985714 L110.850714,42.9814286 L115.660714,42.9814286 C116.125,42.9814286 116.292143,42.8142857 116.292143,42.35 L116.292143,41.44 C116.292143,40.9757143 116.125,40.8085714 115.660714,40.8085714 L110.850714,40.8085714 L110.850714,37.5585714 L116.533571,37.5585714 C117.016429,37.5585714 117.183571,37.3914286 117.183571,36.9271429 L117.183571,36.0171429 C117.183571,35.5528571 117.016429,35.3857143 116.533571,35.3857143 L116.533571,35.3857143 Z M127.527857,35.3857143 L119.337857,35.3857143 C118.873571,35.3857143 118.706429,35.5528571 118.706429,36.0171429 L118.706429,36.9271429 C118.706429,37.3914286 118.873571,37.5585714 119.337857,37.5585714 L125.243571,37.5585714 L118.836429,46.38 C118.687857,46.5842857 118.613571,46.77 118.613571,47.03 L118.613571,47.94 C118.613571,48.4042857 118.780714,48.5714286 119.245,48.5714286 L127.639286,48.5714286 C128.122143,48.5714286 128.270714,48.4042857 128.270714,47.94 L128.270714,47.03 C128.270714,46.5471429 128.122143,46.3985714 127.639286,46.3985714 L121.529286,46.3985714 L127.955,37.5771429 C128.103571,37.3914286 128.159286,37.1871429 128.159286,36.9085714 L128.159286,36.0171429 C128.159286,35.5528571 127.992143,35.3857143 127.527857,35.3857143 L127.527857,35.3857143 Z M130.183571,36.0171429 L130.183571,47.94 C130.183571,48.4042857 130.350714,48.5714286 130.833571,48.5714286 L131.892143,48.5714286 C132.356429,48.5714286 132.523571,48.4042857 132.523571,47.94 L132.523571,36.0171429 C132.523571,35.5528571 132.356429,35.3857143 131.892143,35.3857143 L130.833571,35.3857143 C130.350714,35.3857143 130.183571,35.5528571 130.183571,36.0171429 L130.183571,36.0171429 Z" id="OKUW-MERKEZI" fill="#999999"></path>
            </g>
        </g>
    </g>
</svg>