<?xml version="1.0" encoding="UTF-8" standalone="no"?>
<svg width="273px" height="171px" viewBox="0 0 273 171" version="1.1" xmlns="http://www.w3.org/2000/svg" xmlns:xlink="http://www.w3.org/1999/xlink" xmlns:sketch="http://www.bohemiancoding.com/sketch/ns">
    <!-- Generator: Sketch 3.4.3 (16044) - http://www.bohemiancoding.com/sketch -->
    <title>logо</title>
    <desc>Created with Sketch.</desc>
    <defs></defs>
    <g id="Page-1" stroke="none" stroke-width="1" fill="none" fill-rule="evenodd" sketch:type="MSPage">
        <g id="logо" sketch:type="MSLayerGroup">
            <g id="flights" transform="translate(83.000000, 0.000000)" sketch:type="MSShapeGroup">
                <circle id="bg-circle" fill="#F6F6F6" cx="53" cy="53" r="53"></circle>
                <circle id="Oval-7-Copy-4" stroke="#168F63" stroke-width="3" fill="#168F63" cx="53" cy="53" r="40"></circle>
                <path d="M83.14285,36.5309 C82.26735,36.4924 81.36485,36.4609 80.48935,36.4264 C79.57835,36.3904 78.65435,36.3554 77.74385,36.3194 C76.87685,36.2854 76.00335,36.2504 75.13635,36.2169 C74.16385,36.1789 73.18835,36.1419 72.21585,36.1039 C71.40185,36.0719 70.58585,36.0379 69.77185,36.0054 C68.84335,35.9689 67.91435,35.9334 66.98585,35.8969 C66.11885,35.8629 65.25185,35.8284 64.38485,35.7944 C63.47385,35.7584 62.56235,35.7229 61.65185,35.6869 C60.78485,35.6524 59.91785,35.6179 59.05085,35.5834 C58.13985,35.5474 57.22935,35.5124 56.31835,35.4764 C55.43435,35.4419 54.54985,35.4064 53.66535,35.3719 C52.75485,35.3359 51.84385,35.3009 50.93335,35.2644 C50.13585,35.2319 49.33885,35.1974 48.54185,35.1644 C47.22635,35.1094 45.91135,35.0529 44.59535,35.0004 C43.56885,34.9594 42.54235,34.9279 41.51585,34.8849 C39.92935,34.8189 38.34285,34.7459 36.75585,34.6759 C36.30935,34.6564 35.86235,34.6269 35.41535,34.6219 C34.69785,34.6134 33.96885,34.5429 33.26435,34.6409 C31.93985,34.8244 30.99635,35.5669 30.53535,36.8499 C30.18835,37.8144 30.36035,38.7284 30.91485,39.5614 C31.19535,39.9824 31.53135,40.3739 31.88535,40.7364 C34.04835,42.9524 35.70335,45.4744 36.55585,48.4754 C36.77935,49.2629 36.92285,50.0734 37.10285,50.8734 C36.86585,50.7954 36.74635,50.6459 36.61135,50.5124 C35.17035,49.0874 33.80735,47.5764 32.16385,46.3714 C30.95485,45.4859 29.64185,44.9004 28.08585,45.1169 C27.48785,45.1999 27.05135,45.5269 26.68385,45.9894 C27.10885,45.8699 27.52685,45.8644 27.92835,45.9474 C28.16235,45.9959 28.39085,46.0739 28.61235,46.1769 C29.24135,46.4709 29.84835,46.8209 30.43485,47.1949 C30.97435,47.5399 31.39685,47.9204 31.89085,48.3049 C31.45335,48.1509 31.08985,48.0164 30.72185,47.8964 C30.58985,47.8534 30.47735,47.8584 30.38985,47.9264 C30.18535,48.6444 29.52585,49.1709 28.74235,49.1709 C26.97835,49.1709 26.75535,46.8014 26.62785,46.3609 C26.53035,46.0249 26.51985,45.9659 26.15585,45.9119 C26.08685,45.9019 26.01535,45.9084 25.94635,45.8984 C24.96985,45.7534 24.08685,46.4484 23.99985,47.4439 C25.26435,47.5354 25.93985,48.1759 26.17585,49.2509 C26.43285,50.4229 26.60935,51.6124 26.82935,52.7929 C27.07235,54.0944 27.27585,55.4059 27.58385,56.6924 C28.07235,58.7344 28.94385,60.6034 30.30935,62.2244 C31.41235,63.5339 32.71985,64.5944 34.17085,65.4889 C35.23985,66.1474 36.36535,66.6894 37.51985,67.1804 C39.07585,67.8419 40.62135,68.5289 42.17235,69.2034 C44.39985,70.1719 46.62785,71.1389 48.85585,72.1059 C50.56985,72.8499 52.28435,73.5919 53.99735,74.3379 C55.70335,75.0814 57.40735,75.8289 59.11185,76.5749 C60.29035,77.0909 61.46685,77.6104 62.64585,78.1244 C64.07735,78.7489 65.51235,79.3659 66.94335,79.9924 C68.15935,80.5249 69.36985,81.0714 70.58685,81.6029 C72.02385,82.2304 73.46885,82.8404 74.90335,83.4739 C75.99085,83.9539 77.7384459,84.984048 78.8184459,85.482048 C78.9594459,85.547548 84.7048213,80.7818985 87.4882762,76.0762787 C72.3247762,70.9332787 56.72785,65.3119 41.55735,60.1664 C41.73635,59.9469 41.90585,59.7689 42.03985,59.5674 C42.26035,59.2364 42.58585,59.2294 42.91785,59.2589 C43.49985,59.3094 44.08085,59.4364 44.66135,59.4304 C45.93235,59.4174 47.08835,59.0229 48.08485,58.2104 C48.12585,58.1769 48.15085,58.1234 48.18835,58.0724 C46.72785,57.7659 45.25635,57.6249 43.85035,57.0909 C44.06935,56.7209 44.27185,56.3779 44.47135,56.0409 C44.73785,56.0754 44.98835,56.1044 45.23785,56.1399 C46.03835,56.2539 46.83685,56.3849 47.63935,56.4804 C48.29935,56.5589 48.97585,56.6804 49.61935,56.4334 C50.20285,56.2099 50.76735,55.9324 51.32635,55.6514 C51.59935,55.5144 51.84135,55.3154 52.11635,55.1319 C51.44585,55.0559 50.81235,55.0319 50.20035,54.9049 C48.84535,54.6229 47.50135,54.2894 46.15285,53.9769 C45.58635,53.8099 45.56985,53.7764 45.74985,53.2984 C46.00285,52.6284 46.00085,52.6374 46.68885,52.7914 C47.93535,53.0699 49.17785,53.3714 50.43385,53.6004 C52.36885,53.9534 54.03285,53.2974 55.55035,52.1129 C55.36685,52.0644 55.20585,52.0139 55.04135,51.9794 C53.01785,51.5544 50.99435,51.1319 48.97085,50.7089 C48.32635,50.5739 47.67785,50.4554 47.03835,50.3004 C46.64585,50.2054 46.64935,50.1804 46.71235,49.7979 C46.76135,49.5034 46.81885,49.2099 46.87185,48.9169 C47.26135,48.9914 47.61085,49.0599 47.96035,49.1249 C49.12385,49.3424 50.28685,49.5599 51.45085,49.7754 C52.50285,49.9699 53.54935,50.2079 54.60935,50.3439 C56.55035,50.5929 58.27285,50.0939 59.75835,48.6189 C58.36385,48.3584 57.03085,48.1014 55.69535,47.8629 C54.79635,47.7024 53.89235,47.5694 52.99085,47.4214 C52.07235,47.2704 51.15435,47.1169 50.23585,46.9644 C49.15535,46.7849 48.07535,46.6059 46.99635,46.4264 C46.96185,45.9679 46.92835,45.5274 46.89385,45.0659 C46.97585,45.0714 47.05285,45.0719 47.12835,45.0834 C47.65285,45.1639 48.17635,45.2484 48.70135,45.3284 C49.54535,45.4569 50.39035,45.5814 51.23485,45.7104 C52.22835,45.8624 53.22035,46.0224 54.21435,46.1694 C55.11085,46.3024 56.01035,46.4184 56.90735,46.5504 C57.80185,46.6819 58.69235,46.8459 59.58935,46.9569 C60.68035,47.0929 61.77685,47.1914 62.87135,47.3009 C64.12785,47.4269 65.33935,47.3134 66.44985,46.6369 C67.05135,46.2704 67.60685,45.8504 68.12685,45.3444 C67.32585,45.1729 66.66735,45.0629 66.00685,44.9659 C65.45585,44.8854 64.90335,44.8184 64.35085,44.7494 C63.72835,44.6714 63.10535,44.5979 62.48235,44.5209 C61.82535,44.4399 61.16835,44.3549 60.51085,44.2749 C59.87035,44.1974 59.22885,44.1259 58.58835,44.0479 C57.93085,43.9679 57.27435,43.8804 56.61685,43.8004 C55.97635,43.7229 55.33485,43.6549 54.69435,43.5764 C53.89785,43.4784 53.10185,43.3734 52.30585,43.2729 C51.50935,43.1719 50.71335,43.0709 49.91685,42.9739 C49.26635,42.8944 48.61435,42.8254 47.96435,42.7434 C47.46435,42.6804 46.96585,42.6074 46.46785,42.5314 C46.41135,42.5224 46.33235,42.4749 46.31435,42.4264 C46.16635,42.0304 46.03035,41.6299 45.88085,41.2039 C46.54985,41.2639 47.19385,41.3169 47.83635,41.3809 C48.64485,41.4614 49.45235,41.5529 50.26085,41.6364 C50.82585,41.6949 51.39185,41.7454 51.95735,41.8044 C52.57335,41.8689 53.18885,41.9399 53.80485,42.0059 C54.35185,42.0639 54.89885,42.1169 55.44535,42.1759 C56.04385,42.2399 56.64185,42.3099 57.24035,42.3749 C57.78735,42.4344 58.33485,42.4874 58.88185,42.5474 C59.61885,42.6284 60.35485,42.7169 61.09185,42.7959 C61.64735,42.8559 62.20385,42.9019 62.75935,42.9629 C63.49585,43.0434 64.23085,43.1369 64.96735,43.2174 C65.53135,43.2789 66.09785,43.3229 66.66235,43.3849 C67.56435,43.4834 68.46535,43.5949 69.36735,43.6914 C70.11385,43.7709 70.86485,43.8124 71.60785,43.9139 C72.74985,44.0694 73.87935,44.0689 74.99135,43.7419 C76.31835,43.3514 77.37785,42.5629 78.29935,41.4844 C78.04185,41.4569 77.82885,41.4344 77.61585,41.4109 C77.01735,41.3459 76.41935,41.2789 75.82035,41.2164 C75.23885,41.1559 74.65685,41.0974 74.07435,41.0434 C73.34335,40.9749 72.61185,40.9084 71.87985,40.8479 C71.36635,40.8049 70.85085,40.7779 70.33735,40.7369 C69.51885,40.6709 68.70085,40.5979 67.88235,40.5304 C67.39435,40.4904 66.90585,40.4584 66.41785,40.4174 C65.62535,40.3519 64.83335,40.2794 64.04035,40.2144 C63.53485,40.1729 63.02785,40.1439 62.52235,40.1029 C61.71185,40.0374 60.90185,39.9634 60.09085,39.8979 C59.58485,39.8569 59.07785,39.8279 58.57185,39.7874 C57.74435,39.7209 56.91685,39.6484 56.08935,39.5814 C55.60135,39.5419 55.11235,39.5129 54.62435,39.4709 C53.85835,39.4059 53.09335,39.3289 52.32685,39.2664 C51.77785,39.2214 51.22685,39.1994 50.67785,39.1544 C49.69435,39.0739 48.71185,38.9794 47.72835,38.8979 C46.79435,38.8214 45.85935,38.7594 44.92585,38.6784 C44.74185,38.6624 44.49685,38.6474 44.39435,38.5314 C44.06135,38.1554 43.78135,37.7329 43.48035,37.3264 C44.12885,37.3569 44.77485,37.3859 45.42085,37.4184 C46.12235,37.4534 46.82335,37.4879 47.52435,37.5299 C48.60785,37.5949 49.69085,37.6669 50.77435,37.7339 C51.38585,37.7719 51.99785,37.8019 52.60885,37.8434 C53.56835,37.9089 54.52735,37.9849 55.48685,38.0494 C56.12435,38.0924 56.76285,38.1184 57.40035,38.1594 C58.43035,38.2254 59.45985,38.2984 60.48985,38.3669 C61.06585,38.4049 61.64285,38.4374 62.21885,38.4764 C63.20485,38.5439 64.19035,38.6169 65.17635,38.6829 C65.78735,38.7234 66.39935,38.7524 67.01035,38.7929 C68.01385,38.8594 69.01685,38.9324 70.02035,38.9994 C70.61385,39.0389 71.20785,39.0684 71.80135,39.1089 C72.76985,39.1754 73.73785,39.2504 74.70635,39.3154 C75.33485,39.3574 75.96435,39.3814 76.59285,39.4254 C77.77035,39.5074 78.94635,39.6109 80.12435,39.6814 C81.03435,39.7354 81.94685,39.7794 82.85885,39.7824 C84.98585,39.7889 86.82685,38.9569 88.14585,37.2784 C88.23585,37.1634 88.03585,37.0549 88.53585,36.9434 C87.53585,36.8209 87.11235,36.7279 86.45185,36.6859 C85.36785,36.6169 84.22835,36.5779 83.14285,36.5309 Z M28.9999937,47.5038044 C29.0013222,47.2107182 28.7907631,47.0000004 28.4965116,47.0000004 C28.1913005,46.9996696 27.9990075,47.1945091 28.0000039,47.5021504 C28.0010002,47.7833279 28.2158768,48 28.4938547,48 C28.7665189,48 28.9986653,47.7720808 28.9999937,47.5038044" id="Fill-5" fill="#FFFFFF"></path>
            </g>
            <g id="text-copy" transform="translate(0.000000, 122.000000)" sketch:type="MSShapeGroup">
                <path d="M12.2742857,4.92911781 L0.96,4.92911781 C0.228571429,4.92911781 0,5.18054639 0,5.88911781 L0,7.94626067 C0,8.67768924 0.228571429,8.92911781 0.96,8.92911781 L4.36571429,8.92911781 L4.36571429,20.1976892 C4.36571429,20.9062607 4.59428571,21.1576892 5.32571429,21.1576892 L7.90857143,21.1576892 C8.64,21.1576892 8.89142857,20.9062607 8.89142857,20.1976892 L8.89142857,8.92911781 L12.2742857,8.92911781 C13.0057143,8.92911781 13.2571429,8.67768924 13.2571429,7.94626067 L13.2571429,5.88911781 C13.2571429,5.18054639 13.0057143,4.92911781 12.2742857,4.92911781 L12.2742857,4.92911781 Z M19.04,0.266260672 L18.88,0.266260672 C17.6,0.266260672 17.2342857,0.6548321 17.2342857,1.88911781 L17.2342857,2.18626067 C17.2342857,3.39768924 17.6,3.80911781 18.88,3.80911781 L19.04,3.80911781 C20.32,3.80911781 20.7314286,3.39768924 20.7314286,2.18626067 L20.7314286,1.88911781 C20.7314286,0.6548321 20.32,0.266260672 19.04,0.266260672 L19.04,0.266260672 Z M23.9542857,0.266260672 L23.7942857,0.266260672 C22.5371429,0.266260672 22.1257143,0.6548321 22.1257143,1.88911781 L22.1257143,2.18626067 C22.1257143,3.39768924 22.5371429,3.80911781 23.7942857,3.80911781 L23.9542857,3.80911781 C25.2342857,3.80911781 25.6228571,3.39768924 25.6228571,2.18626067 L25.6228571,1.88911781 C25.6228571,0.6548321 25.2342857,0.266260672 23.9542857,0.266260672 L23.9542857,0.266260672 Z M19.0628571,15.3976892 L19.0628571,5.88911781 C19.0628571,5.18054639 18.8114286,4.92911781 18.08,4.92911781 L15.4971429,4.92911781 C14.7657143,4.92911781 14.5371429,5.18054639 14.5371429,5.88911781 L14.5371429,15.191975 C14.5371429,19.031975 16.9142857,21.5005464 21.4171429,21.5005464 C25.9428571,21.5005464 28.32,19.031975 28.32,15.191975 L28.32,5.88911781 C28.32,5.18054639 28.0685714,4.92911781 27.3371429,4.92911781 L24.7542857,4.92911781 C24.0228571,4.92911781 23.7942857,5.18054639 23.7942857,5.88911781 L23.7942857,15.3976892 C23.7942857,16.7462607 22.9942857,17.5005464 21.4171429,17.5005464 C19.84,17.5005464 19.0628571,16.7462607 19.0628571,15.3976892 L19.0628571,15.3976892 Z M37.9657143,4.92911781 L31.4514286,4.92911781 C30.72,4.92911781 30.4685714,5.18054639 30.4685714,5.88911781 L30.4685714,20.1976892 C30.4685714,20.9062607 30.72,21.1576892 31.4514286,21.1576892 L34.0342857,21.1576892 C34.7657143,21.1576892 34.9942857,20.9062607 34.9942857,20.1976892 L34.9942857,15.7634035 L35.52,15.7634035 C36.4571429,15.7634035 36.8457143,16.151975 37.2342857,16.9291178 L38.6971429,20.0605464 C39.0628571,20.8605464 39.5885714,21.1576892 40.8,21.1576892 L43.2685714,21.1576892 C44.0228571,21.1576892 44.1828571,20.6548321 43.8628571,20.0376892 L41.8057143,16.1291178 C41.6228571,15.7634035 41.4171429,15.4434035 41.1885714,15.1462607 C42.7428571,14.2776892 43.6571429,12.6776892 43.6571429,10.4376892 C43.6571429,6.8948321 41.4171429,4.92911781 37.9657143,4.92911781 L37.9657143,4.92911781 Z M38.9714286,10.4148321 C38.9714286,11.351975 38.4228571,11.9462607 37.4628571,11.9462607 L34.9942857,11.9462607 L34.9942857,8.92911781 L37.4628571,8.92911781 C38.4457143,8.92911781 38.9714286,9.50054639 38.9714286,10.4148321 L38.9714286,10.4148321 Z M59.1542857,20.0376892 L56.1371429,14.3234035 C55.7485714,13.5462607 55.3142857,12.9748321 54.7428571,12.5634035 L58.9028571,5.9348321 C59.2685714,5.34054639 59.04,4.92911781 58.3542857,4.92911781 L55.7257143,4.92911781 C54.5371429,4.92911781 54.3314286,5.06626067 53.8971429,5.7748321 L50.6057143,10.9634035 L50.4228571,10.9634035 L50.1028571,10.9634035 L50.1028571,5.88911781 C50.1028571,5.18054639 49.8742857,4.92911781 49.1428571,4.92911781 L46.56,4.92911781 C45.8285714,4.92911781 45.5771429,5.18054639 45.5771429,5.88911781 L45.5771429,20.1976892 C45.5771429,20.9062607 45.8285714,21.1576892 46.56,21.1576892 L49.1428571,21.1576892 C49.8742857,21.1576892 50.1028571,20.9062607 50.1028571,20.1976892 L50.1028571,14.9634035 L50.5142857,14.9634035 C51.3828571,14.9634035 51.7028571,15.3748321 52.0685714,16.1062607 L54.0571429,20.1976892 C54.4457143,20.9976892 54.88,21.1576892 56.0914286,21.1576892 L58.56,21.1576892 C59.3142857,21.1576892 59.4742857,20.6548321 59.1542857,20.0376892 L59.1542857,20.0376892 Z M76.1371429,4.90626067 L73.8514286,4.90626067 C73.0971429,4.90626067 72.8914286,5.02054639 72.5714286,5.63768924 L68.8,13.0205464 L65.0285714,5.6148321 C64.7085714,5.04340353 64.48,4.90626067 63.68,4.90626067 L61.5314286,4.90626067 C60.8,4.90626067 60.5485714,5.1348321 60.5485714,5.86626067 L60.5485714,20.2205464 C60.5485714,20.9291178 60.8,21.1576892 61.5314286,21.1576892 L63.8628571,21.1576892 C64.5942857,21.1576892 64.8457143,20.9291178 64.8457143,20.2205464 L64.8457143,16.9748321 C64.8457143,15.3976892 64.7314286,14.2548321 63.9085714,10.9634035 L64.1371429,10.9634035 C64.3657143,11.7634035 65.0742857,13.8662607 65.5542857,14.7348321 L66.9028571,17.3176892 C67.1542857,17.8205464 67.3828571,17.9805464 68,17.9805464 L69.5314286,17.9805464 C70.1485714,17.9805464 70.3771429,17.7748321 70.6285714,17.3176892 L71.9085714,14.7348321 C72.3885714,13.7976892 73.2114286,11.7176892 73.44,10.9634035 L73.6914286,10.9634035 C72.8228571,14.0034035 72.6857143,15.4434035 72.6857143,16.951975 L72.6857143,20.2205464 C72.6857143,20.9291178 72.9142857,21.1576892 73.6457143,21.1576892 L76.1371429,21.1576892 C76.8685714,21.1576892 77.12,20.9291178 77.12,20.2205464 L77.12,5.86626067 C77.12,5.1348321 76.8685714,4.90626067 76.1371429,4.90626067 L76.1371429,4.90626067 Z M89.9657143,4.92911781 L80.3885714,4.92911781 C79.6571429,4.92911781 79.4057143,5.18054639 79.4057143,5.88911781 L79.4057143,20.1976892 C79.4057143,20.9062607 79.6571429,21.1576892 80.3885714,21.1576892 L90.1714286,21.1576892 C90.88,21.1576892 91.1314286,20.9062607 91.1314286,20.1976892 L91.1314286,18.1176892 C91.1314286,17.3862607 90.88,17.1576892 90.1714286,17.1576892 L83.9314286,17.1576892 L83.9314286,14.9634035 L88.7542857,14.9634035 C89.4857143,14.9634035 89.7371429,14.711975 89.7371429,13.9805464 L89.7371429,11.9234035 C89.7371429,11.2148321 89.4857143,10.9634035 88.7542857,10.9634035 L83.9314286,10.9634035 L83.9314286,8.92911781 L89.9657143,8.92911781 C90.6971429,8.92911781 90.9485714,8.67768924 90.9485714,7.94626067 L90.9485714,5.88911781 C90.9485714,5.18054639 90.6971429,4.92911781 89.9657143,4.92911781 L89.9657143,4.92911781 Z M105.6,4.92911781 L103.268571,4.92911781 C102.537143,4.92911781 102.308571,5.18054639 102.308571,5.88911781 L102.308571,9.63768924 C102.308571,11.9691178 102.605714,13.0662607 103.337143,15.4205464 L103.154286,15.4205464 C102.422857,13.6834035 102.24,12.8148321 101.234286,11.2376892 L97.4857143,5.38626067 C97.28,5.06626067 97.0514286,4.92911781 96.5257143,4.92911781 L93.8285714,4.92911781 C93.0971429,4.92911781 92.8457143,5.18054639 92.8457143,5.88911781 L92.8457143,20.1976892 C92.8457143,20.9062607 93.0971429,21.1576892 93.8285714,21.1576892 L96.1371429,21.1576892 C96.8685714,21.1576892 97.12,20.9062607 97.12,20.1976892 L97.12,16.471975 C97.12,13.9348321 96.8457143,12.7691178 96.3657143,10.5748321 L96.5485714,10.5748321 C97.1657143,12.631975 97.5542857,13.7062607 98.56,15.2834035 L102.08,20.7005464 C102.285714,21.0205464 102.537143,21.1576892 103.017143,21.1576892 L105.6,21.1576892 C106.308571,21.1576892 106.56,20.9062607 106.56,20.1976892 L106.56,5.88911781 C106.56,5.18054639 106.308571,4.92911781 105.6,4.92911781 L105.6,4.92911781 Z M121.371429,4.90626067 L118.765714,4.90626067 C118.057143,4.90626067 117.805714,5.15768924 117.805714,5.88911781 L117.805714,10.9405464 L113.371429,10.9405464 L113.371429,5.88911781 C113.371429,5.15768924 113.142857,4.90626067 112.411429,4.90626067 L109.828571,4.90626067 C109.097143,4.90626067 108.845714,5.15768924 108.845714,5.88911781 L108.845714,20.1976892 C108.845714,20.9062607 109.097143,21.1576892 109.828571,21.1576892 L112.411429,21.1576892 C113.142857,21.1576892 113.371429,20.9062607 113.371429,20.1976892 L113.371429,14.9405464 L117.805714,14.9405464 L117.805714,20.1976892 C117.805714,20.9062607 118.057143,21.1576892 118.765714,21.1576892 L121.371429,21.1576892 C122.08,21.1576892 122.331429,20.9062607 122.331429,20.1976892 L122.331429,5.88911781 C122.331429,5.15768924 122.08,4.90626067 121.371429,4.90626067 L121.371429,4.90626067 Z M124.228571,10.9862607 L124.228571,15.1005464 C124.228571,19.0548321 126.742857,21.5005464 131.268571,21.5005464 C135.771429,21.5005464 138.285714,19.0548321 138.285714,15.1005464 L138.285714,10.9862607 C138.285714,7.03197496 135.771429,4.58626067 131.268571,4.58626067 C126.742857,4.58626067 124.228571,7.03197496 124.228571,10.9862607 L124.228571,10.9862607 Z M133.76,10.7805464 L133.76,15.3062607 C133.76,16.7462607 132.845714,17.5005464 131.268571,17.5005464 C129.668571,17.5005464 128.754286,16.7462607 128.754286,15.3062607 L128.754286,10.7805464 C128.754286,9.34054639 129.668571,8.58626067 131.268571,8.58626067 C132.845714,8.58626067 133.76,9.34054639 133.76,10.7805464 L133.76,10.7805464 Z M159.268571,4.92911781 L156.731429,4.92911781 C155.908571,4.92911781 155.565714,5.06626067 155.428571,5.7748321 L154.468571,11.7634035 C154.285714,13.0205464 154.148571,15.1691178 154.125714,15.8091178 L153.942857,15.8091178 C153.92,15.1234035 153.782857,13.0662607 153.508571,11.7634035 L152.114286,5.7748321 C151.954286,5.06626067 151.542857,4.92911781 150.834286,4.92911781 L148.365714,4.92911781 C147.634286,4.92911781 147.245714,5.04340353 147.085714,5.7748321 L145.668571,11.7634035 C145.394286,12.9976892 145.234286,15.1234035 145.234286,15.8091178 L145.074286,15.8091178 C145.074286,15.1691178 144.96,12.951975 144.754286,11.7634035 L143.748571,5.7748321 C143.611429,5.06626067 143.268571,4.92911781 142.468571,4.92911781 L139.657143,4.92911781 C138.948571,4.92911781 138.88,5.22626067 139.04,5.86626067 L142.651429,20.4034035 C142.788571,21.0205464 143.177143,21.1576892 143.84,21.1576892 L146.468571,21.1576892 C147.108571,21.1576892 147.474286,21.0205464 147.657143,20.3576892 L148.868571,15.0776892 C149.188571,13.591975 149.325714,12.2662607 149.371429,10.9634035 L149.554286,10.9634035 C149.577143,12.2662607 149.691429,13.6376892 149.988571,15.0776892 L151.222857,20.4034035 C151.36,20.9976892 151.748571,21.1576892 152.411429,21.1576892 L155.085714,21.1576892 C155.725714,21.1576892 156.091429,21.0205464 156.251429,20.3576892 L159.885714,5.86626067 C160.045714,5.22626067 159.977143,4.92911781 159.268571,4.92911781 L159.268571,4.92911781 Z M174.445714,20.2205464 L169.165714,5.68340353 C168.937143,5.08911781 168.64,4.92911781 167.977143,4.92911781 L165.371429,4.92911781 C164.708571,4.92911781 164.411429,5.06626067 164.182857,5.72911781 L158.925714,20.2205464 C158.697143,20.8376892 158.834286,21.1576892 159.542857,21.1576892 L161.942857,21.1576892 C163.085714,21.1576892 163.382857,20.9062607 163.611429,20.1976892 L164.137143,18.551975 L169.074286,18.551975 L169.6,20.1976892 C169.782857,20.9062607 170.125714,21.1576892 171.314286,21.1576892 L173.782857,21.1576892 C174.468571,21.1576892 174.674286,20.8376892 174.445714,20.2205464 L174.445714,20.2205464 Z M167.2,12.2891178 L168.045714,14.9634035 L165.188571,14.9634035 L166.034286,12.2662607 C166.491429,10.7348321 166.468571,9.08911781 166.468571,9.08911781 L166.697143,9.08911781 C166.697143,9.08911781 166.742857,10.7348321 167.2,12.2891178 L167.2,12.2891178 Z M180.182857,0.266260672 L176.96,2.11768924 C176.548571,2.34626067 176.548571,2.55197496 176.891429,2.98626067 L177.531429,3.74054639 C177.76,4.06054639 178.034286,4.0148321 178.582857,3.8548321 L182.72,2.5748321 C183.268571,2.36911781 183.245714,2.11768924 182.857143,1.66054639 L181.691429,0.3348321 C181.234286,-0.168025042 180.708571,-0.0308821852 180.182857,0.266260672 L180.182857,0.266260672 Z M186.925714,4.92911781 L184.297143,4.92911781 C183.177143,4.92911781 182.857143,4.9748321 182.422857,5.7748321 L179.908571,10.4376892 L177.462857,5.7748321 C177.028571,4.9748321 176.708571,4.92911781 175.565714,4.92911781 L172.822857,4.92911781 C172.114286,4.92911781 172.022857,5.36340353 172.342857,5.88911781 L177.6,14.871975 L177.6,20.1976892 C177.6,20.9062607 177.851429,21.1576892 178.582857,21.1576892 L181.165714,21.1576892 C181.897143,21.1576892 182.125714,20.9062607 182.125714,20.1976892 L182.125714,14.871975 L187.405714,5.88911781 C187.702857,5.36340353 187.611429,4.92911781 186.925714,4.92911781 L186.925714,4.92911781 Z M187.497143,10.9862607 L187.497143,15.1005464 C187.497143,19.0548321 190.011429,21.5005464 194.537143,21.5005464 C199.04,21.5005464 201.554286,19.0548321 201.554286,15.1005464 L201.554286,10.9862607 C201.554286,7.03197496 199.04,4.58626067 194.537143,4.58626067 C190.011429,4.58626067 187.497143,7.03197496 187.497143,10.9862607 L187.497143,10.9862607 Z M197.028571,10.7805464 L197.028571,15.3062607 C197.028571,16.7462607 196.114286,17.5005464 194.537143,17.5005464 C192.937143,17.5005464 192.022857,16.7462607 192.022857,15.3062607 L192.022857,10.7805464 C192.022857,9.34054639 192.937143,8.58626067 194.537143,8.58626067 C196.114286,8.58626067 197.028571,9.34054639 197.028571,10.7805464 L197.028571,10.7805464 Z M207.04,4.92911781 L204.457143,4.92911781 C203.725714,4.92911781 203.474286,5.18054639 203.474286,5.88911781 L203.474286,20.1976892 C203.474286,20.9062607 203.725714,21.1576892 204.457143,21.1576892 L213.508571,21.1576892 C214.217143,21.1576892 214.468571,20.9062607 214.468571,20.1976892 L214.468571,18.1176892 C214.468571,17.3862607 214.217143,17.1576892 213.508571,17.1576892 L208,17.1576892 L208,5.88911781 C208,5.18054639 207.771429,4.92911781 207.04,4.92911781 L207.04,4.92911781 Z M219.428571,4.92911781 L216.845714,4.92911781 C216.114286,4.92911781 215.862857,5.18054639 215.862857,5.88911781 L215.862857,20.1976892 C215.862857,20.9062607 216.114286,21.1576892 216.845714,21.1576892 L225.897143,21.1576892 C226.605714,21.1576892 226.857143,20.9062607 226.857143,20.1976892 L226.857143,18.1176892 C226.857143,17.3862607 226.605714,17.1576892 225.897143,17.1576892 L220.388571,17.1576892 L220.388571,5.88911781 C220.388571,5.18054639 220.16,4.92911781 219.428571,4.92911781 L219.428571,4.92911781 Z M242.742857,20.2205464 L237.462857,5.68340353 C237.234286,5.08911781 236.937143,4.92911781 236.274286,4.92911781 L233.668571,4.92911781 C233.005714,4.92911781 232.708571,5.06626067 232.48,5.72911781 L227.222857,20.2205464 C226.994286,20.8376892 227.131429,21.1576892 227.84,21.1576892 L230.24,21.1576892 C231.382857,21.1576892 231.68,20.9062607 231.908571,20.1976892 L232.434286,18.551975 L237.371429,18.551975 L237.897143,20.1976892 C238.08,20.9062607 238.422857,21.1576892 239.611429,21.1576892 L242.08,21.1576892 C242.765714,21.1576892 242.971429,20.8376892 242.742857,20.2205464 L242.742857,20.2205464 Z M235.497143,12.2891178 L236.342857,14.9634035 L233.485714,14.9634035 L234.331429,12.2662607 C234.788571,10.7348321 234.765714,9.08911781 234.765714,9.08911781 L234.994286,9.08911781 C234.994286,9.08911781 235.04,10.7348321 235.497143,12.2891178 L235.497143,12.2891178 Z M251.474286,4.92911781 L244.96,4.92911781 C244.228571,4.92911781 243.977143,5.18054639 243.977143,5.88911781 L243.977143,20.1976892 C243.977143,20.9062607 244.228571,21.1576892 244.96,21.1576892 L247.542857,21.1576892 C248.274286,21.1576892 248.502857,20.9062607 248.502857,20.1976892 L248.502857,15.7634035 L249.028571,15.7634035 C249.965714,15.7634035 250.354286,16.151975 250.742857,16.9291178 L252.205714,20.0605464 C252.571429,20.8605464 253.097143,21.1576892 254.308571,21.1576892 L256.777143,21.1576892 C257.531429,21.1576892 257.691429,20.6548321 257.371429,20.0376892 L255.314286,16.1291178 C255.131429,15.7634035 254.925714,15.4434035 254.697143,15.1462607 C256.251429,14.2776892 257.165714,12.6776892 257.165714,10.4376892 C257.165714,6.8948321 254.925714,4.92911781 251.474286,4.92911781 L251.474286,4.92911781 Z M252.48,10.4148321 C252.48,11.351975 251.931429,11.9462607 250.971429,11.9462607 L248.502857,11.9462607 L248.502857,8.92911781 L250.971429,8.92911781 C251.954286,8.92911781 252.48,9.50054639 252.48,10.4148321 L252.48,10.4148321 Z M271.885714,4.92911781 L269.257143,4.92911781 C268.137143,4.92911781 267.817143,4.9748321 267.382857,5.7748321 L264.868571,10.4376892 L262.422857,5.7748321 C261.988571,4.9748321 261.668571,4.92911781 260.525714,4.92911781 L257.782857,4.92911781 C257.074286,4.92911781 256.982857,5.36340353 257.302857,5.88911781 L262.56,14.871975 L262.56,20.1976892 C262.56,20.9062607 262.811429,21.1576892 263.542857,21.1576892 L266.125714,21.1576892 C266.857143,21.1576892 267.085714,20.9062607 267.085714,20.1976892 L267.085714,14.871975 L272.365714,5.88911781 C272.662857,5.36340353 272.571429,4.92911781 271.885714,4.92911781 L271.885714,4.92911781 Z" id="TÜRKMENHOWAÝOLLARY" fill="#45414D"></path>
                <path d="M70,39.8471429 L70,43.8957143 C70,46.8857143 71.8942857,48.7428571 75.3114286,48.7428571 C78.71,48.7428571 80.6042857,46.8857143 80.6042857,43.8957143 L80.6042857,39.8471429 C80.6042857,36.8571429 78.71,35 75.3114286,35 C71.8942857,35 70,36.8571429 70,39.8471429 L70,39.8471429 Z M78.2828571,39.8285714 L78.2828571,43.9142857 C78.2828571,45.6414286 77.2057143,46.57 75.3114286,46.57 C73.3985714,46.57 72.34,45.6414286 72.34,43.9142857 L72.34,39.8285714 C72.34,38.1014286 73.3985714,37.1728571 75.3114286,37.1728571 C77.2057143,37.1728571 78.2828571,38.1014286 78.2828571,39.8285714 L78.2828571,39.8285714 Z M92.8242857,47.8328571 L90.4657143,43.3014286 C89.9271429,42.2614286 89.3328571,41.5742857 88.46,41.1842857 L92.6014286,35.8914286 C92.8428571,35.5757143 92.7314286,35.2785714 92.3042857,35.2785714 L91.1157143,35.2785714 C90.3728571,35.2785714 90.1871429,35.3528571 89.8528571,35.7985714 L86.12,40.72 L85.8785714,40.72 L85.1357143,40.72 L85.1357143,35.91 C85.1357143,35.4457143 84.9685714,35.2785714 84.5042857,35.2785714 L83.4457143,35.2785714 C82.9628571,35.2785714 82.7957143,35.4457143 82.7957143,35.91 L82.7957143,47.8328571 C82.7957143,48.2971429 82.9628571,48.4642857 83.4457143,48.4642857 L84.5042857,48.4642857 C84.9685714,48.4642857 85.1357143,48.2971429 85.1357143,47.8328571 L85.1357143,42.8371429 L86.0828571,42.8371429 C87.3642857,42.8371429 87.7914286,43.1342857 88.2928571,44.1371429 L90.1685714,47.9071429 C90.3914286,48.3714286 90.6328571,48.4642857 91.4314286,48.4642857 L92.5085714,48.4642857 C92.9728571,48.4642857 93.01,48.1857143 92.8242857,47.8328571 L92.8242857,47.8328571 Z M96.6871429,43.9514286 L96.6871429,35.91 C96.6871429,35.4457143 96.52,35.2785714 96.0557143,35.2785714 L94.9785714,35.2785714 C94.5142857,35.2785714 94.3471429,35.4457143 94.3471429,35.91 L94.3471429,43.9328571 C94.3471429,46.8485714 96.13,48.7428571 99.5471429,48.7428571 C102.964286,48.7428571 104.728571,46.8485714 104.728571,43.9328571 L104.728571,35.91 C104.728571,35.4457143 104.58,35.2785714 104.097143,35.2785714 L103.038571,35.2785714 C102.574286,35.2785714 102.407143,35.4457143 102.407143,35.91 L102.407143,43.9514286 C102.407143,45.6042857 101.46,46.57 99.5471429,46.57 C97.6342857,46.57 96.6871429,45.6042857 96.6871429,43.9514286 L96.6871429,43.9514286 Z M121.87,35.2785714 L120.737143,35.2785714 C120.217143,35.2785714 119.994286,35.3714286 119.901429,35.8357143 L118.415714,42.7814286 C118.267143,43.5057143 118.1,44.9542857 118.081429,45.2514286 L117.97,45.2514286 C117.951429,44.8985714 117.784286,43.5614286 117.58,42.7628571 L115.741429,35.8914286 C115.63,35.4271429 115.388571,35.3342857 114.905714,35.3342857 L113.902857,35.3342857 C113.438571,35.3342857 113.197143,35.4271429 113.067143,35.8914286 L111.191429,42.7628571 C111.005714,43.4871429 110.838571,44.8614286 110.82,45.2514286 L110.708571,45.2514286 C110.671429,44.9171429 110.541429,43.4128571 110.411429,42.7628571 L108.888571,35.8357143 C108.795714,35.3714286 108.572857,35.2785714 108.052857,35.2785714 L106.752857,35.2785714 C106.288571,35.2785714 106.232857,35.4642857 106.344286,35.8914286 L109.39,47.9628571 C109.501429,48.39 109.742857,48.4642857 110.188571,48.4642857 L111.191429,48.4642857 C111.618571,48.4642857 111.86,48.39 111.971429,47.9442857 L113.94,40.5714286 C114.107143,39.94 114.237143,39.1971429 114.255714,38.4914286 L114.385714,38.4914286 C114.404286,39.1971429 114.534286,39.9957143 114.682857,40.59 L116.632857,47.9628571 C116.725714,48.3714286 116.967143,48.4642857 117.412857,48.4642857 L118.434286,48.4642857 C118.861429,48.4642857 119.102857,48.39 119.214286,47.9442857 L122.278571,35.8914286 C122.39,35.4642857 122.315714,35.2785714 121.87,35.2785714 L121.87,35.2785714 Z M139.42,35.2785714 L138.51,35.2785714 C138.008571,35.2785714 137.878571,35.3714286 137.655714,35.78 L133.792857,42.67 L129.93,35.7614286 C129.725714,35.3714286 129.558571,35.2785714 129.038571,35.2785714 L128.221429,35.2785714 C127.738571,35.2785714 127.571429,35.4457143 127.571429,35.91 L127.571429,47.8328571 C127.571429,48.2971429 127.738571,48.4642857 128.221429,48.4642857 L129.112857,48.4642857 C129.595714,48.4642857 129.744286,48.2971429 129.744286,47.8328571 L129.744286,42.1871429 C129.744286,41.0171429 129.651429,39.9214286 129.354286,38.4728571 L129.484286,38.4728571 C129.93,39.9585714 130.282857,40.7757143 130.914286,41.8528571 L132.771429,45.0842857 C132.975714,45.4557143 133.105714,45.53 133.495714,45.53 L134.09,45.53 C134.461429,45.53 134.61,45.4185714 134.814286,45.0842857 L136.634286,41.8714286 C137.228571,40.7942857 137.692857,39.8657143 138.157143,38.4728571 L138.287143,38.4728571 C137.971429,39.9028571 137.841429,41.11 137.841429,42.1685714 L137.841429,47.8328571 C137.841429,48.2971429 137.99,48.4642857 138.472857,48.4642857 L139.42,48.4642857 C139.902857,48.4642857 140.051429,48.2971429 140.051429,47.8328571 L140.051429,35.91 C140.051429,35.4457143 139.902857,35.2785714 139.42,35.2785714 L139.42,35.2785714 Z M150.655714,35.2785714 L143.282857,35.2785714 C142.8,35.2785714 142.632857,35.4457143 142.632857,35.91 L142.632857,47.8328571 C142.632857,48.2971429 142.8,48.4642857 143.282857,48.4642857 L150.86,48.4642857 C151.342857,48.4642857 151.491429,48.2971429 151.491429,47.8328571 L151.491429,46.9228571 C151.491429,46.4585714 151.342857,46.2914286 150.86,46.2914286 L144.972857,46.2914286 L144.972857,42.8742857 L149.782857,42.8742857 C150.247143,42.8742857 150.414286,42.7071429 150.414286,42.2428571 L150.414286,41.3328571 C150.414286,40.8685714 150.247143,40.7014286 149.782857,40.7014286 L144.972857,40.7014286 L144.972857,37.4514286 L150.655714,37.4514286 C151.138571,37.4514286 151.305714,37.2842857 151.305714,36.82 L151.305714,35.91 C151.305714,35.4457143 151.138571,35.2785714 150.655714,35.2785714 L150.655714,35.2785714 Z M159.161429,35.2785714 L154.035714,35.2785714 C153.552857,35.2785714 153.385714,35.4457143 153.385714,35.91 L153.385714,47.8328571 C153.385714,48.2971429 153.552857,48.4642857 154.035714,48.4642857 L155.094286,48.4642857 C155.558571,48.4642857 155.725714,48.2971429 155.725714,47.8328571 L155.725714,43.45 L157.1,43.45 C158.381429,43.45 158.827143,43.7285714 159.31,44.75 L160.87,47.9071429 C161.092857,48.3714286 161.334286,48.4642857 162.132857,48.4642857 L163.21,48.4642857 C163.674286,48.4642857 163.711429,48.1857143 163.525714,47.8328571 L161.482857,43.9142857 C161.315714,43.58 161.13,43.32 160.888571,43.1157143 C162.43,42.5957143 163.34,41.2957143 163.34,39.3642857 C163.34,36.8014286 161.742857,35.2785714 159.161429,35.2785714 L159.161429,35.2785714 Z M160.888571,39.3642857 C160.888571,40.6085714 160.182857,41.2771429 158.938571,41.2771429 L155.725714,41.2771429 L155.725714,37.4514286 L158.938571,37.4514286 C160.201429,37.4514286 160.888571,38.1385714 160.888571,39.3642857 L160.888571,39.3642857 Z M175.504286,47.8328571 L173.145714,43.3014286 C172.607143,42.2614286 172.012857,41.5742857 171.14,41.1842857 L175.281429,35.8914286 C175.522857,35.5757143 175.411429,35.2785714 174.984286,35.2785714 L173.795714,35.2785714 C173.052857,35.2785714 172.867143,35.3528571 172.532857,35.7985714 L168.8,40.72 L168.558571,40.72 L167.815714,40.72 L167.815714,35.91 C167.815714,35.4457143 167.648571,35.2785714 167.184286,35.2785714 L166.125714,35.2785714 C165.642857,35.2785714 165.475714,35.4457143 165.475714,35.91 L165.475714,47.8328571 C165.475714,48.2971429 165.642857,48.4642857 166.125714,48.4642857 L167.184286,48.4642857 C167.648571,48.4642857 167.815714,48.2971429 167.815714,47.8328571 L167.815714,42.8371429 L168.762857,42.8371429 C170.044286,42.8371429 170.471429,43.1342857 170.972857,44.1371429 L172.848571,47.9071429 C173.071429,48.3714286 173.312857,48.4642857 174.111429,48.4642857 L175.188571,48.4642857 C175.652857,48.4642857 175.69,48.1857143 175.504286,47.8328571 L175.504286,47.8328571 Z M185.142857,35.2785714 L177.77,35.2785714 C177.287143,35.2785714 177.12,35.4457143 177.12,35.91 L177.12,47.8328571 C177.12,48.2971429 177.287143,48.4642857 177.77,48.4642857 L185.347143,48.4642857 C185.83,48.4642857 185.978571,48.2971429 185.978571,47.8328571 L185.978571,46.9228571 C185.978571,46.4585714 185.83,46.2914286 185.347143,46.2914286 L179.46,46.2914286 L179.46,42.8742857 L184.27,42.8742857 C184.734286,42.8742857 184.901429,42.7071429 184.901429,42.2428571 L184.901429,41.3328571 C184.901429,40.8685714 184.734286,40.7014286 184.27,40.7014286 L179.46,40.7014286 L179.46,37.4514286 L185.142857,37.4514286 C185.625714,37.4514286 185.792857,37.2842857 185.792857,36.82 L185.792857,35.91 C185.792857,35.4457143 185.625714,35.2785714 185.142857,35.2785714 L185.142857,35.2785714 Z M196.137143,35.2785714 L187.947143,35.2785714 C187.482857,35.2785714 187.315714,35.4457143 187.315714,35.91 L187.315714,36.82 C187.315714,37.2842857 187.482857,37.4514286 187.947143,37.4514286 L193.852857,37.4514286 L187.445714,46.2728571 C187.297143,46.4771429 187.222857,46.6628571 187.222857,46.9228571 L187.222857,47.8328571 C187.222857,48.2971429 187.39,48.4642857 187.854286,48.4642857 L196.248571,48.4642857 C196.731429,48.4642857 196.88,48.2971429 196.88,47.8328571 L196.88,46.9228571 C196.88,46.44 196.731429,46.2914286 196.248571,46.2914286 L190.138571,46.2914286 L196.564286,37.47 C196.712857,37.2842857 196.768571,37.08 196.768571,36.8014286 L196.768571,35.91 C196.768571,35.4457143 196.601429,35.2785714 196.137143,35.2785714 L196.137143,35.2785714 Z M198.792857,35.91 L198.792857,47.8328571 C198.792857,48.2971429 198.96,48.4642857 199.442857,48.4642857 L200.501429,48.4642857 C200.965714,48.4642857 201.132857,48.2971429 201.132857,47.8328571 L201.132857,35.91 C201.132857,35.4457143 200.965714,35.2785714 200.501429,35.2785714 L199.442857,35.2785714 C198.96,35.2785714 198.792857,35.4457143 198.792857,35.91 L198.792857,35.91 Z" id="OKUW-MERKEZI" fill="#999999"></path>
            </g>
        </g>
    </g>
</svg>